<?xml version="1.0" encoding="UTF-8" standalone="no"?>
<!DOCTYPE svg PUBLIC "-//W3C//DTD SVG 1.1//EN"
 "http://www.w3.org/Graphics/SVG/1.1/DTD/svg11.dtd">
<!-- Generated by graphviz version 2.47.0 (20210316.0004)
 -->
<!-- Title: dependencies Pages: 1 -->
<svg width="565pt" height="211pt"
 viewBox="0.00 0.00 565.00 211.00" xmlns="http://www.w3.org/2000/svg" xmlns:xlink="http://www.w3.org/1999/xlink">
<g id="graph0" class="graph" transform="scale(1 1) rotate(0) translate(4 207)">
<title>dependencies</title>
<polygon fill="white" stroke="transparent" points="-4,4 -4,-207 561,-207 561,4 -4,4"/>
<text text-anchor="start" x="257.51" y="-42.4" font-family="sans-serif" font-weight="bold" font-size="14.00">Legend</text>
<polygon fill="#ffffb3" stroke="transparent" points="44.5,-10 44.5,-30 64.5,-30 64.5,-10 44.5,-10"/>
<text text-anchor="start" x="68.13" y="-15.4" font-family="sans-serif" font-size="14.00"> &#160;Declarations</text>
<polygon fill="#8dd3c7" stroke="transparent" points="157.5,-10 157.5,-30 177.5,-30 177.5,-10 157.5,-10"/>
<text text-anchor="start" x="181.23" y="-15.4" font-family="sans-serif" font-size="14.00"> &#160;Module</text>
<polygon fill="#80b1d3" stroke="transparent" points="243.5,-10 243.5,-30 263.5,-30 263.5,-10 243.5,-10"/>
<text text-anchor="start" x="267.28" y="-15.4" font-family="sans-serif" font-size="14.00"> &#160;Bootstrap</text>
<polygon fill="#fdb462" stroke="transparent" points="340.5,-10 340.5,-30 360.5,-30 360.5,-10 340.5,-10"/>
<text text-anchor="start" x="364.17" y="-15.4" font-family="sans-serif" font-size="14.00"> &#160;Providers</text>
<polygon fill="#fb8072" stroke="transparent" points="436.5,-10 436.5,-30 456.5,-30 456.5,-10 436.5,-10"/>
<text text-anchor="start" x="460.23" y="-15.4" font-family="sans-serif" font-size="14.00"> &#160;Exports</text>
<g id="clust1" class="cluster">
<title>cluster_GenresModule</title>
<polygon fill="none" stroke="black" stroke-dasharray="1,5" points="8,-70 8,-195 549,-195 549,-70 8,-70"/>
</g>
<g id="clust6" class="cluster">
<title>cluster_GenresModule_providers</title>
<polygon fill="none" stroke="black" points="237,-78 237,-130 541,-130 541,-78 237,-78"/>
</g>
<g id="clust3" class="cluster">
<title>cluster_GenresModule_imports</title>
<polygon fill="none" stroke="black" points="16,-78 16,-130 229,-130 229,-78 16,-78"/>
</g>
<!-- AuthModule -->
<g id="node1" class="node">
<title>AuthModule</title>
<polygon fill="#8dd3c7" stroke="black" points="220.55,-122 217.55,-126 196.55,-126 193.55,-122 133.45,-122 133.45,-86 220.55,-86 220.55,-122"/>
<text text-anchor="middle" x="177" y="-99.8" font-family="Times,serif" font-size="14.00">AuthModule</text>
</g>
<!-- GenresModule -->
<g id="node3" class="node">
<title>GenresModule</title>
<polygon fill="#8dd3c7" stroke="black" points="294.69,-187 291.69,-191 270.69,-191 267.69,-187 195.31,-187 195.31,-151 294.69,-151 294.69,-187"/>
<text text-anchor="middle" x="245" y="-164.8" font-family="Times,serif" font-size="14.00">GenresModule</text>
</g>
<!-- AuthModule&#45;&gt;GenresModule -->
<g id="edge1" class="edge">
<title>AuthModule&#45;&gt;GenresModule</title>
<path fill="none" stroke="black" d="M208.09,-122.11C208.09,-122.11 208.09,-140.99 208.09,-140.99"/>
<polygon fill="black" stroke="black" points="204.59,-140.99 208.09,-150.99 211.59,-140.99 204.59,-140.99"/>
</g>
<!-- UsersModule -->
<g id="node2" class="node">
<title>UsersModule</title>
<polygon fill="#8dd3c7" stroke="black" points="115.92,-122 112.92,-126 91.92,-126 88.92,-122 24.08,-122 24.08,-86 115.92,-86 115.92,-122"/>
<text text-anchor="middle" x="70" y="-99.8" font-family="Times,serif" font-size="14.00">UsersModule</text>
</g>
<!-- UsersModule&#45;&gt;GenresModule -->
<g id="edge2" class="edge">
<title>UsersModule&#45;&gt;GenresModule</title>
<path fill="none" stroke="black" d="M70,-122.11C70,-141.34 70,-169 70,-169 70,-169 185.32,-169 185.32,-169"/>
<polygon fill="black" stroke="black" points="185.32,-172.5 195.32,-169 185.32,-165.5 185.32,-172.5"/>
</g>
<!-- GenresService -->
<g id="node4" class="node">
<title>GenresService</title>
<ellipse fill="#fdb462" stroke="black" cx="466" cy="-104" rx="67.17" ry="18"/>
<text text-anchor="middle" x="466" y="-99.8" font-family="Times,serif" font-size="14.00">GenresService</text>
</g>
<!-- GenresService&#45;&gt;GenresModule -->
<g id="edge3" class="edge">
<title>GenresService&#45;&gt;GenresModule</title>
<path fill="none" stroke="black" d="M466,-122.11C466,-141.34 466,-169 466,-169 466,-169 304.6,-169 304.6,-169"/>
<polygon fill="black" stroke="black" points="304.6,-165.5 294.6,-169 304.6,-172.5 304.6,-165.5"/>
</g>
<!-- JwtAuthGuard -->
<g id="node5" class="node">
<title>JwtAuthGuard</title>
<ellipse fill="#fdb462" stroke="black" cx="313" cy="-104" rx="67.78" ry="18"/>
<text text-anchor="middle" x="313" y="-99.8" font-family="Times,serif" font-size="14.00">JwtAuthGuard</text>
</g>
<!-- JwtAuthGuard&#45;&gt;GenresModule -->
<g id="edge4" class="edge">
<title>JwtAuthGuard&#45;&gt;GenresModule</title>
<path fill="none" stroke="black" d="M269.85,-118.1C269.85,-118.1 269.85,-140.72 269.85,-140.72"/>
<polygon fill="black" stroke="black" points="266.35,-140.72 269.85,-150.72 273.35,-140.72 266.35,-140.72"/>
</g>
</g>
</svg>
