<?xml version="1.0" encoding="UTF-8" standalone="no"?>
<!DOCTYPE svg PUBLIC "-//W3C//DTD SVG 1.1//EN"
 "http://www.w3.org/Graphics/SVG/1.1/DTD/svg11.dtd">
<!-- Generated by graphviz version 2.47.0 (20210316.0004)
 -->
<!-- Title: dependencies Pages: 1 -->
<svg width="1065pt" height="284pt"
 viewBox="0.00 0.00 1065.00 284.00" xmlns="http://www.w3.org/2000/svg" xmlns:xlink="http://www.w3.org/1999/xlink">
<g id="graph0" class="graph" transform="scale(1 1) rotate(0) translate(4 280)">
<title>dependencies</title>
<polygon fill="white" stroke="transparent" points="-4,4 -4,-280 1061,-280 1061,4 -4,4"/>
<text text-anchor="start" x="507.51" y="-42.4" font-family="sans-serif" font-weight="bold" font-size="14.00">Legend</text>
<polygon fill="#ffffb3" stroke="transparent" points="294.5,-10 294.5,-30 314.5,-30 314.5,-10 294.5,-10"/>
<text text-anchor="start" x="318.13" y="-15.4" font-family="sans-serif" font-size="14.00"> &#160;Declarations</text>
<polygon fill="#8dd3c7" stroke="transparent" points="407.5,-10 407.5,-30 427.5,-30 427.5,-10 407.5,-10"/>
<text text-anchor="start" x="431.23" y="-15.4" font-family="sans-serif" font-size="14.00"> &#160;Module</text>
<polygon fill="#80b1d3" stroke="transparent" points="493.5,-10 493.5,-30 513.5,-30 513.5,-10 493.5,-10"/>
<text text-anchor="start" x="517.28" y="-15.4" font-family="sans-serif" font-size="14.00"> &#160;Bootstrap</text>
<polygon fill="#fdb462" stroke="transparent" points="590.5,-10 590.5,-30 610.5,-30 610.5,-10 590.5,-10"/>
<text text-anchor="start" x="614.17" y="-15.4" font-family="sans-serif" font-size="14.00"> &#160;Providers</text>
<polygon fill="#fb8072" stroke="transparent" points="686.5,-10 686.5,-30 706.5,-30 706.5,-10 686.5,-10"/>
<text text-anchor="start" x="710.23" y="-15.4" font-family="sans-serif" font-size="14.00"> &#160;Exports</text>
<g id="clust1" class="cluster">
<title>cluster_AuthModule</title>
<polygon fill="none" stroke="black" stroke-dasharray="1,5" points="8,-70 8,-268 1049,-268 1049,-70 8,-70"/>
</g>
<g id="clust6" class="cluster">
<title>cluster_AuthModule_providers</title>
<polygon fill="none" stroke="black" points="132,-78 132,-130 1041,-130 1041,-78 132,-78"/>
</g>
<g id="clust4" class="cluster">
<title>cluster_AuthModule_exports</title>
<polygon fill="none" stroke="black" points="381,-208 381,-260 603,-260 603,-208 381,-208"/>
</g>
<g id="clust3" class="cluster">
<title>cluster_AuthModule_imports</title>
<polygon fill="none" stroke="black" points="16,-78 16,-130 124,-130 124,-78 16,-78"/>
</g>
<!-- UsersModule -->
<g id="node1" class="node">
<title>UsersModule</title>
<polygon fill="#8dd3c7" stroke="black" points="115.92,-122 112.92,-126 91.92,-126 88.92,-122 24.08,-122 24.08,-86 115.92,-86 115.92,-122"/>
<text text-anchor="middle" x="70" y="-99.8" font-family="Times,serif" font-size="14.00">UsersModule</text>
</g>
<!-- AuthModule -->
<g id="node2" class="node">
<title>AuthModule</title>
<polygon fill="#8dd3c7" stroke="black" points="531.55,-187 528.55,-191 507.55,-191 504.55,-187 444.45,-187 444.45,-151 531.55,-151 531.55,-187"/>
<text text-anchor="middle" x="488" y="-164.8" font-family="Times,serif" font-size="14.00">AuthModule</text>
</g>
<!-- UsersModule&#45;&gt;AuthModule -->
<g id="edge1" class="edge">
<title>UsersModule&#45;&gt;AuthModule</title>
<path fill="none" stroke="black" d="M70,-122.29C70,-144.21 70,-178 70,-178 70,-178 434.45,-178 434.45,-178"/>
<polygon fill="black" stroke="black" points="434.45,-181.5 444.45,-178 434.45,-174.5 434.45,-181.5"/>
</g>
<!-- JwtAuthGuard  -->
<g id="node3" class="node">
<title>JwtAuthGuard </title>
<polygon fill="#fb8072" stroke="black" points="594.92,-252 493.08,-252 493.08,-216 594.92,-216 594.92,-252"/>
<text text-anchor="middle" x="544" y="-229.8" font-family="Times,serif" font-size="14.00">JwtAuthGuard </text>
</g>
<!-- AuthModule&#45;&gt;JwtAuthGuard  -->
<g id="edge2" class="edge">
<title>AuthModule&#45;&gt;JwtAuthGuard </title>
<path fill="none" stroke="black" stroke-dasharray="5,2" d="M512.41,-187.11C512.41,-187.11 512.41,-205.99 512.41,-205.99"/>
<polygon fill="black" stroke="black" points="508.91,-205.99 512.41,-215.99 515.91,-205.99 508.91,-205.99"/>
</g>
<!-- RolesGuard  -->
<g id="node4" class="node">
<title>RolesGuard </title>
<polygon fill="#fb8072" stroke="black" points="475.37,-252 388.63,-252 388.63,-216 475.37,-216 475.37,-252"/>
<text text-anchor="middle" x="432" y="-229.8" font-family="Times,serif" font-size="14.00">RolesGuard </text>
</g>
<!-- AuthModule&#45;&gt;RolesGuard  -->
<g id="edge3" class="edge">
<title>AuthModule&#45;&gt;RolesGuard </title>
<path fill="none" stroke="black" stroke-dasharray="5,2" d="M459.71,-187.11C459.71,-187.11 459.71,-205.99 459.71,-205.99"/>
<polygon fill="black" stroke="black" points="456.21,-205.99 459.71,-215.99 463.21,-205.99 456.21,-205.99"/>
</g>
<!-- AuthService -->
<g id="node5" class="node">
<title>AuthService</title>
<ellipse fill="#fdb462" stroke="black" cx="974" cy="-104" rx="59.11" ry="18"/>
<text text-anchor="middle" x="974" y="-99.8" font-family="Times,serif" font-size="14.00">AuthService</text>
</g>
<!-- AuthService&#45;&gt;AuthModule -->
<g id="edge4" class="edge">
<title>AuthService&#45;&gt;AuthModule</title>
<path fill="none" stroke="black" d="M974,-122.29C974,-144.21 974,-178 974,-178 974,-178 541.56,-178 541.56,-178"/>
<polygon fill="black" stroke="black" points="541.56,-174.5 531.56,-178 541.56,-181.5 541.56,-174.5"/>
</g>
<!-- FacebookStrategy -->
<g id="node6" class="node">
<title>FacebookStrategy</title>
<ellipse fill="#fdb462" stroke="black" cx="816" cy="-104" rx="80.52" ry="18"/>
<text text-anchor="middle" x="816" y="-99.8" font-family="Times,serif" font-size="14.00">FacebookStrategy</text>
</g>
<!-- FacebookStrategy&#45;&gt;AuthModule -->
<g id="edge5" class="edge">
<title>FacebookStrategy&#45;&gt;AuthModule</title>
<path fill="none" stroke="black" d="M816,-122.11C816,-141.34 816,-169 816,-169 816,-169 541.56,-169 541.56,-169"/>
<polygon fill="black" stroke="black" points="541.56,-165.5 531.56,-169 541.56,-172.5 541.56,-165.5"/>
</g>
<!-- GoogleStrategy -->
<g id="node7" class="node">
<title>GoogleStrategy</title>
<ellipse fill="#fdb462" stroke="black" cx="646" cy="-104" rx="71.79" ry="18"/>
<text text-anchor="middle" x="646" y="-99.8" font-family="Times,serif" font-size="14.00">GoogleStrategy</text>
</g>
<!-- GoogleStrategy&#45;&gt;AuthModule -->
<g id="edge6" class="edge">
<title>GoogleStrategy&#45;&gt;AuthModule</title>
<path fill="none" stroke="black" d="M584.66,-113.5C584.66,-129.48 584.66,-160 584.66,-160 584.66,-160 541.8,-160 541.8,-160"/>
<polygon fill="black" stroke="black" points="541.8,-156.5 531.8,-160 541.8,-163.5 541.8,-156.5"/>
</g>
<!-- JwtAuthGuard -->
<g id="node8" class="node">
<title>JwtAuthGuard</title>
<ellipse fill="#fdb462" stroke="black" cx="488" cy="-104" rx="67.78" ry="18"/>
<text text-anchor="middle" x="488" y="-99.8" font-family="Times,serif" font-size="14.00">JwtAuthGuard</text>
</g>
<!-- JwtAuthGuard&#45;&gt;AuthModule -->
<g id="edge7" class="edge">
<title>JwtAuthGuard&#45;&gt;AuthModule</title>
<path fill="none" stroke="black" d="M488,-122.11C488,-122.11 488,-140.99 488,-140.99"/>
<polygon fill="black" stroke="black" points="484.5,-140.99 488,-150.99 491.5,-140.99 484.5,-140.99"/>
</g>
<!-- JwtStrategy -->
<g id="node9" class="node">
<title>JwtStrategy</title>
<ellipse fill="#fdb462" stroke="black" cx="345" cy="-104" rx="56.76" ry="18"/>
<text text-anchor="middle" x="345" y="-99.8" font-family="Times,serif" font-size="14.00">JwtStrategy</text>
</g>
<!-- JwtStrategy&#45;&gt;AuthModule -->
<g id="edge8" class="edge">
<title>JwtStrategy&#45;&gt;AuthModule</title>
<path fill="none" stroke="black" d="M395.22,-112.75C395.22,-128.5 395.22,-160 395.22,-160 395.22,-160 434.33,-160 434.33,-160"/>
<polygon fill="black" stroke="black" points="434.33,-163.5 444.33,-160 434.33,-156.5 434.33,-163.5"/>
</g>
<!-- LocalStrategy -->
<g id="node10" class="node">
<title>LocalStrategy</title>
<ellipse fill="#fdb462" stroke="black" cx="205" cy="-104" rx="65.41" ry="18"/>
<text text-anchor="middle" x="205" y="-99.8" font-family="Times,serif" font-size="14.00">LocalStrategy</text>
</g>
<!-- LocalStrategy&#45;&gt;AuthModule -->
<g id="edge9" class="edge">
<title>LocalStrategy&#45;&gt;AuthModule</title>
<path fill="none" stroke="black" d="M205,-122.11C205,-141.34 205,-169 205,-169 205,-169 434.4,-169 434.4,-169"/>
<polygon fill="black" stroke="black" points="434.4,-172.5 444.4,-169 434.4,-165.5 434.4,-172.5"/>
</g>
</g>
</svg>
