<?xml version="1.0" encoding="UTF-8" standalone="no"?>
<!DOCTYPE svg PUBLIC "-//W3C//DTD SVG 1.1//EN"
 "http://www.w3.org/Graphics/SVG/1.1/DTD/svg11.dtd">
<!-- Generated by graphviz version 2.47.0 (20210316.0004)
 -->
<!-- Title: dependencies Pages: 1 -->
<svg width="678pt" height="211pt"
 viewBox="0.00 0.00 678.00 211.00" xmlns="http://www.w3.org/2000/svg" xmlns:xlink="http://www.w3.org/1999/xlink">
<g id="graph0" class="graph" transform="scale(1 1) rotate(0) translate(4 207)">
<title>dependencies</title>
<polygon fill="white" stroke="transparent" points="-4,4 -4,-207 674,-207 674,4 -4,4"/>
<text text-anchor="start" x="314.01" y="-42.4" font-family="sans-serif" font-weight="bold" font-size="14.00">Legend</text>
<polygon fill="#ffffb3" stroke="transparent" points="101,-10 101,-30 121,-30 121,-10 101,-10"/>
<text text-anchor="start" x="124.63" y="-15.4" font-family="sans-serif" font-size="14.00"> &#160;Declarations</text>
<polygon fill="#8dd3c7" stroke="transparent" points="214,-10 214,-30 234,-30 234,-10 214,-10"/>
<text text-anchor="start" x="237.73" y="-15.4" font-family="sans-serif" font-size="14.00"> &#160;Module</text>
<polygon fill="#80b1d3" stroke="transparent" points="300,-10 300,-30 320,-30 320,-10 300,-10"/>
<text text-anchor="start" x="323.78" y="-15.4" font-family="sans-serif" font-size="14.00"> &#160;Bootstrap</text>
<polygon fill="#fdb462" stroke="transparent" points="397,-10 397,-30 417,-30 417,-10 397,-10"/>
<text text-anchor="start" x="420.67" y="-15.4" font-family="sans-serif" font-size="14.00"> &#160;Providers</text>
<polygon fill="#fb8072" stroke="transparent" points="493,-10 493,-30 513,-30 513,-10 493,-10"/>
<text text-anchor="start" x="516.73" y="-15.4" font-family="sans-serif" font-size="14.00"> &#160;Exports</text>
<g id="clust1" class="cluster">
<title>cluster_RateingModule</title>
<polygon fill="none" stroke="black" stroke-dasharray="1,5" points="8,-70 8,-195 662,-195 662,-70 8,-70"/>
</g>
<g id="clust6" class="cluster">
<title>cluster_RateingModule_providers</title>
<polygon fill="none" stroke="black" points="352,-78 352,-130 654,-130 654,-78 352,-78"/>
</g>
<g id="clust3" class="cluster">
<title>cluster_RateingModule_imports</title>
<polygon fill="none" stroke="black" points="16,-78 16,-130 344,-130 344,-78 16,-78"/>
</g>
<!-- AuthModule -->
<g id="node1" class="node">
<title>AuthModule</title>
<polygon fill="#8dd3c7" stroke="black" points="335.55,-122 332.55,-126 311.55,-126 308.55,-122 248.45,-122 248.45,-86 335.55,-86 335.55,-122"/>
<text text-anchor="middle" x="292" y="-99.8" font-family="Times,serif" font-size="14.00">AuthModule</text>
</g>
<!-- RateingModule -->
<g id="node4" class="node">
<title>RateingModule</title>
<polygon fill="#8dd3c7" stroke="black" points="343.6,-187 340.6,-191 319.6,-191 316.6,-187 240.4,-187 240.4,-151 343.6,-151 343.6,-187"/>
<text text-anchor="middle" x="292" y="-164.8" font-family="Times,serif" font-size="14.00">RateingModule</text>
</g>
<!-- AuthModule&#45;&gt;RateingModule -->
<g id="edge1" class="edge">
<title>AuthModule&#45;&gt;RateingModule</title>
<path fill="none" stroke="black" d="M292,-122.11C292,-122.11 292,-140.99 292,-140.99"/>
<polygon fill="black" stroke="black" points="288.5,-140.99 292,-150.99 295.5,-140.99 288.5,-140.99"/>
</g>
<!-- MovieModule -->
<g id="node2" class="node">
<title>MovieModule</title>
<polygon fill="#8dd3c7" stroke="black" points="230.1,-122 227.1,-126 206.1,-126 203.1,-122 133.9,-122 133.9,-86 230.1,-86 230.1,-122"/>
<text text-anchor="middle" x="182" y="-99.8" font-family="Times,serif" font-size="14.00">MovieModule</text>
</g>
<!-- MovieModule&#45;&gt;RateingModule -->
<g id="edge2" class="edge">
<title>MovieModule&#45;&gt;RateingModule</title>
<path fill="none" stroke="black" d="M230.19,-104C238.4,-104 244.34,-104 244.34,-104 244.34,-104 244.34,-140.89 244.34,-140.89"/>
<polygon fill="black" stroke="black" points="240.84,-140.89 244.34,-150.89 247.84,-140.89 240.84,-140.89"/>
</g>
<!-- UsersModule -->
<g id="node3" class="node">
<title>UsersModule</title>
<polygon fill="#8dd3c7" stroke="black" points="115.92,-122 112.92,-126 91.92,-126 88.92,-122 24.08,-122 24.08,-86 115.92,-86 115.92,-122"/>
<text text-anchor="middle" x="70" y="-99.8" font-family="Times,serif" font-size="14.00">UsersModule</text>
</g>
<!-- UsersModule&#45;&gt;RateingModule -->
<g id="edge3" class="edge">
<title>UsersModule&#45;&gt;RateingModule</title>
<path fill="none" stroke="black" d="M70,-122.11C70,-141.34 70,-169 70,-169 70,-169 230.23,-169 230.23,-169"/>
<polygon fill="black" stroke="black" points="230.23,-172.5 240.23,-169 230.23,-165.5 230.23,-172.5"/>
</g>
<!-- JwtAuthGuard -->
<g id="node5" class="node">
<title>JwtAuthGuard</title>
<ellipse fill="#fdb462" stroke="black" cx="578" cy="-104" rx="67.78" ry="18"/>
<text text-anchor="middle" x="578" y="-99.8" font-family="Times,serif" font-size="14.00">JwtAuthGuard</text>
</g>
<!-- JwtAuthGuard&#45;&gt;RateingModule -->
<g id="edge4" class="edge">
<title>JwtAuthGuard&#45;&gt;RateingModule</title>
<path fill="none" stroke="black" d="M578,-122.11C578,-141.34 578,-169 578,-169 578,-169 353.79,-169 353.79,-169"/>
<polygon fill="black" stroke="black" points="353.79,-165.5 343.79,-169 353.79,-172.5 353.79,-165.5"/>
</g>
<!-- RatingService -->
<g id="node6" class="node">
<title>RatingService</title>
<ellipse fill="#fdb462" stroke="black" cx="426" cy="-104" rx="65.99" ry="18"/>
<text text-anchor="middle" x="426" y="-99.8" font-family="Times,serif" font-size="14.00">RatingService</text>
</g>
<!-- RatingService&#45;&gt;RateingModule -->
<g id="edge5" class="edge">
<title>RatingService&#45;&gt;RateingModule</title>
<path fill="none" stroke="black" d="M360.12,-104C348.3,-104 339.66,-104 339.66,-104 339.66,-104 339.66,-140.89 339.66,-140.89"/>
<polygon fill="black" stroke="black" points="336.16,-140.89 339.66,-150.89 343.16,-140.89 336.16,-140.89"/>
</g>
</g>
</svg>
