<?xml version="1.0" encoding="UTF-8" standalone="no"?>
<!DOCTYPE svg PUBLIC "-//W3C//DTD SVG 1.1//EN"
 "http://www.w3.org/Graphics/SVG/1.1/DTD/svg11.dtd">
<!-- Generated by graphviz version 2.47.0 (20210316.0004)
 -->
<!-- Title: dependencies Pages: 1 -->
<svg width="504pt" height="211pt"
 viewBox="0.00 0.00 504.00 211.00" xmlns="http://www.w3.org/2000/svg" xmlns:xlink="http://www.w3.org/1999/xlink">
<g id="graph0" class="graph" transform="scale(1 1) rotate(0) translate(4 207)">
<title>dependencies</title>
<polygon fill="white" stroke="transparent" points="-4,4 -4,-207 500,-207 500,4 -4,4"/>
<text text-anchor="start" x="227.01" y="-42.4" font-family="sans-serif" font-weight="bold" font-size="14.00">Legend</text>
<polygon fill="#ffffb3" stroke="transparent" points="14,-10 14,-30 34,-30 34,-10 14,-10"/>
<text text-anchor="start" x="37.63" y="-15.4" font-family="sans-serif" font-size="14.00"> &#160;Declarations</text>
<polygon fill="#8dd3c7" stroke="transparent" points="127,-10 127,-30 147,-30 147,-10 127,-10"/>
<text text-anchor="start" x="150.73" y="-15.4" font-family="sans-serif" font-size="14.00"> &#160;Module</text>
<polygon fill="#80b1d3" stroke="transparent" points="213,-10 213,-30 233,-30 233,-10 213,-10"/>
<text text-anchor="start" x="236.78" y="-15.4" font-family="sans-serif" font-size="14.00"> &#160;Bootstrap</text>
<polygon fill="#fdb462" stroke="transparent" points="310,-10 310,-30 330,-30 330,-10 310,-10"/>
<text text-anchor="start" x="333.67" y="-15.4" font-family="sans-serif" font-size="14.00"> &#160;Providers</text>
<polygon fill="#fb8072" stroke="transparent" points="406,-10 406,-30 426,-30 426,-10 406,-10"/>
<text text-anchor="start" x="429.73" y="-15.4" font-family="sans-serif" font-size="14.00"> &#160;Exports</text>
<g id="clust1" class="cluster">
<title>cluster_ProfileModule</title>
<polygon fill="none" stroke="black" stroke-dasharray="1,5" points="55.5,-70 55.5,-195 440.5,-195 440.5,-70 55.5,-70"/>
</g>
<g id="clust6" class="cluster">
<title>cluster_ProfileModule_providers</title>
<polygon fill="none" stroke="black" points="284.5,-78 284.5,-130 432.5,-130 432.5,-78 284.5,-78"/>
</g>
<g id="clust3" class="cluster">
<title>cluster_ProfileModule_imports</title>
<polygon fill="none" stroke="black" points="63.5,-78 63.5,-130 276.5,-130 276.5,-78 63.5,-78"/>
</g>
<!-- AuthModule -->
<g id="node1" class="node">
<title>AuthModule</title>
<polygon fill="#8dd3c7" stroke="black" points="268.05,-122 265.05,-126 244.05,-126 241.05,-122 180.95,-122 180.95,-86 268.05,-86 268.05,-122"/>
<text text-anchor="middle" x="224.5" y="-99.8" font-family="Times,serif" font-size="14.00">AuthModule</text>
</g>
<!-- ProfileModule -->
<g id="node3" class="node">
<title>ProfileModule</title>
<polygon fill="#8dd3c7" stroke="black" points="273.15,-187 270.15,-191 249.15,-191 246.15,-187 175.85,-187 175.85,-151 273.15,-151 273.15,-187"/>
<text text-anchor="middle" x="224.5" y="-164.8" font-family="Times,serif" font-size="14.00">ProfileModule</text>
</g>
<!-- AuthModule&#45;&gt;ProfileModule -->
<g id="edge1" class="edge">
<title>AuthModule&#45;&gt;ProfileModule</title>
<path fill="none" stroke="black" d="M224.5,-122.11C224.5,-122.11 224.5,-140.99 224.5,-140.99"/>
<polygon fill="black" stroke="black" points="221,-140.99 224.5,-150.99 228,-140.99 221,-140.99"/>
</g>
<!-- UsersModule -->
<g id="node2" class="node">
<title>UsersModule</title>
<polygon fill="#8dd3c7" stroke="black" points="163.42,-122 160.42,-126 139.42,-126 136.42,-122 71.58,-122 71.58,-86 163.42,-86 163.42,-122"/>
<text text-anchor="middle" x="117.5" y="-99.8" font-family="Times,serif" font-size="14.00">UsersModule</text>
</g>
<!-- UsersModule&#45;&gt;ProfileModule -->
<g id="edge2" class="edge">
<title>UsersModule&#45;&gt;ProfileModule</title>
<path fill="none" stroke="black" d="M117.5,-122.11C117.5,-141.34 117.5,-169 117.5,-169 117.5,-169 165.7,-169 165.7,-169"/>
<polygon fill="black" stroke="black" points="165.7,-172.5 175.7,-169 165.7,-165.5 165.7,-172.5"/>
</g>
<!-- ProfileService -->
<g id="node4" class="node">
<title>ProfileService</title>
<ellipse fill="#fdb462" stroke="black" cx="358.5" cy="-104" rx="66.05" ry="18"/>
<text text-anchor="middle" x="358.5" y="-99.8" font-family="Times,serif" font-size="14.00">ProfileService</text>
</g>
<!-- ProfileService&#45;&gt;ProfileModule -->
<g id="edge3" class="edge">
<title>ProfileService&#45;&gt;ProfileModule</title>
<path fill="none" stroke="black" d="M358.5,-122.11C358.5,-141.34 358.5,-169 358.5,-169 358.5,-169 283.26,-169 283.26,-169"/>
<polygon fill="black" stroke="black" points="283.26,-165.5 273.26,-169 283.26,-172.5 283.26,-165.5"/>
</g>
</g>
</svg>
