<?xml version="1.0" encoding="UTF-8" standalone="no"?>
<!DOCTYPE svg PUBLIC "-//W3C//DTD SVG 1.1//EN"
 "http://www.w3.org/Graphics/SVG/1.1/DTD/svg11.dtd">
<!-- Generated by graphviz version 2.47.0 (20210316.0004)
 -->
<!-- Title: dependencies Pages: 1 -->
<svg width="1719pt" height="211pt"
 viewBox="0.00 0.00 1719.00 211.00" xmlns="http://www.w3.org/2000/svg" xmlns:xlink="http://www.w3.org/1999/xlink">
<g id="graph0" class="graph" transform="scale(1 1) rotate(0) translate(4 207)">
<title>dependencies</title>
<polygon fill="white" stroke="transparent" points="-4,4 -4,-207 1715,-207 1715,4 -4,4"/>
<text text-anchor="start" x="834.51" y="-42.4" font-family="sans-serif" font-weight="bold" font-size="14.00">Legend</text>
<polygon fill="#ffffb3" stroke="transparent" points="621.5,-10 621.5,-30 641.5,-30 641.5,-10 621.5,-10"/>
<text text-anchor="start" x="645.13" y="-15.4" font-family="sans-serif" font-size="14.00"> &#160;Declarations</text>
<polygon fill="#8dd3c7" stroke="transparent" points="734.5,-10 734.5,-30 754.5,-30 754.5,-10 734.5,-10"/>
<text text-anchor="start" x="758.23" y="-15.4" font-family="sans-serif" font-size="14.00"> &#160;Module</text>
<polygon fill="#80b1d3" stroke="transparent" points="820.5,-10 820.5,-30 840.5,-30 840.5,-10 820.5,-10"/>
<text text-anchor="start" x="844.28" y="-15.4" font-family="sans-serif" font-size="14.00"> &#160;Bootstrap</text>
<polygon fill="#fdb462" stroke="transparent" points="917.5,-10 917.5,-30 937.5,-30 937.5,-10 917.5,-10"/>
<text text-anchor="start" x="941.17" y="-15.4" font-family="sans-serif" font-size="14.00"> &#160;Providers</text>
<polygon fill="#fb8072" stroke="transparent" points="1013.5,-10 1013.5,-30 1033.5,-30 1033.5,-10 1013.5,-10"/>
<text text-anchor="start" x="1037.23" y="-15.4" font-family="sans-serif" font-size="14.00"> &#160;Exports</text>
<g id="clust1" class="cluster">
<title>cluster_AppModule</title>
<polygon fill="none" stroke="black" stroke-dasharray="1,5" points="8,-70 8,-195 1703,-195 1703,-70 8,-70"/>
</g>
<g id="clust3" class="cluster">
<title>cluster_AppModule_imports</title>
<polygon fill="none" stroke="black" points="154,-78 154,-130 1695,-130 1695,-78 154,-78"/>
</g>
<g id="clust6" class="cluster">
<title>cluster_AppModule_providers</title>
<polygon fill="none" stroke="black" points="16,-78 16,-130 146,-130 146,-78 16,-78"/>
</g>
<!-- AuthModule -->
<g id="node1" class="node">
<title>AuthModule</title>
<polygon fill="#8dd3c7" stroke="black" points="1686.55,-122 1683.55,-126 1662.55,-126 1659.55,-122 1599.45,-122 1599.45,-86 1686.55,-86 1686.55,-122"/>
<text text-anchor="middle" x="1643" y="-99.8" font-family="Times,serif" font-size="14.00">AuthModule</text>
</g>
<!-- AppModule -->
<g id="node13" class="node">
<title>AppModule</title>
<polygon fill="#8dd3c7" stroke="black" points="896.66,-187 893.66,-191 872.66,-191 869.66,-187 813.34,-187 813.34,-151 896.66,-151 896.66,-187"/>
<text text-anchor="middle" x="855" y="-164.8" font-family="Times,serif" font-size="14.00">AppModule</text>
</g>
<!-- AuthModule&#45;&gt;AppModule -->
<g id="edge1" class="edge">
<title>AuthModule&#45;&gt;AppModule</title>
<path fill="none" stroke="black" d="M1643,-122.09C1643,-145.13 1643,-182 1643,-182 1643,-182 906.81,-182 906.81,-182"/>
<polygon fill="black" stroke="black" points="906.81,-178.5 896.81,-182 906.81,-185.5 906.81,-178.5"/>
</g>
<!-- DatabaseModule -->
<g id="node2" class="node">
<title>DatabaseModule</title>
<polygon fill="#8dd3c7" stroke="black" points="1581.35,-122 1578.35,-126 1557.35,-126 1554.35,-122 1470.65,-122 1470.65,-86 1581.35,-86 1581.35,-122"/>
<text text-anchor="middle" x="1526" y="-99.8" font-family="Times,serif" font-size="14.00">DatabaseModule</text>
</g>
<!-- DatabaseModule&#45;&gt;AppModule -->
<g id="edge2" class="edge">
<title>DatabaseModule&#45;&gt;AppModule</title>
<path fill="none" stroke="black" d="M1526,-122.04C1526,-143.66 1526,-177 1526,-177 1526,-177 906.72,-177 906.72,-177"/>
<polygon fill="black" stroke="black" points="906.72,-173.5 896.72,-177 906.72,-180.5 906.72,-173.5"/>
</g>
<!-- GenresModule -->
<g id="node3" class="node">
<title>GenresModule</title>
<polygon fill="#8dd3c7" stroke="black" points="1452.69,-122 1449.69,-126 1428.69,-126 1425.69,-122 1353.31,-122 1353.31,-86 1452.69,-86 1452.69,-122"/>
<text text-anchor="middle" x="1403" y="-99.8" font-family="Times,serif" font-size="14.00">GenresModule</text>
</g>
<!-- GenresModule&#45;&gt;AppModule -->
<g id="edge3" class="edge">
<title>GenresModule&#45;&gt;AppModule</title>
<path fill="none" stroke="black" d="M1403,-122.22C1403,-142.37 1403,-172 1403,-172 1403,-172 907.09,-172 907.09,-172"/>
<polygon fill="black" stroke="black" points="907.09,-168.5 897.09,-172 907.09,-175.5 907.09,-168.5"/>
</g>
<!-- MovieDirectorModule -->
<g id="node4" class="node">
<title>MovieDirectorModule</title>
<polygon fill="#8dd3c7" stroke="black" points="1335.24,-122 1332.24,-126 1311.24,-126 1308.24,-122 1192.76,-122 1192.76,-86 1335.24,-86 1335.24,-122"/>
<text text-anchor="middle" x="1264" y="-99.8" font-family="Times,serif" font-size="14.00">MovieDirectorModule</text>
</g>
<!-- MovieDirectorModule&#45;&gt;AppModule -->
<g id="edge4" class="edge">
<title>MovieDirectorModule&#45;&gt;AppModule</title>
<path fill="none" stroke="black" d="M1264,-122.22C1264,-140.83 1264,-167 1264,-167 1264,-167 906.85,-167 906.85,-167"/>
<polygon fill="black" stroke="black" points="906.85,-163.5 896.85,-167 906.85,-170.5 906.85,-163.5"/>
</g>
<!-- MovieGenresModule -->
<g id="node5" class="node">
<title>MovieGenresModule</title>
<polygon fill="#8dd3c7" stroke="black" points="1174.74,-122 1171.74,-126 1150.74,-126 1147.74,-122 1039.26,-122 1039.26,-86 1174.74,-86 1174.74,-122"/>
<text text-anchor="middle" x="1107" y="-99.8" font-family="Times,serif" font-size="14.00">MovieGenresModule</text>
</g>
<!-- MovieGenresModule&#45;&gt;AppModule -->
<g id="edge5" class="edge">
<title>MovieGenresModule&#45;&gt;AppModule</title>
<path fill="none" stroke="black" d="M1107,-122.03C1107,-139.06 1107,-162 1107,-162 1107,-162 906.9,-162 906.9,-162"/>
<polygon fill="black" stroke="black" points="906.9,-158.5 896.9,-162 906.9,-165.5 906.9,-158.5"/>
</g>
<!-- MovieModule -->
<g id="node6" class="node">
<title>MovieModule</title>
<polygon fill="#8dd3c7" stroke="black" points="1021.1,-122 1018.1,-126 997.1,-126 994.1,-122 924.9,-122 924.9,-86 1021.1,-86 1021.1,-122"/>
<text text-anchor="middle" x="973" y="-99.8" font-family="Times,serif" font-size="14.00">MovieModule</text>
</g>
<!-- MovieModule&#45;&gt;AppModule -->
<g id="edge6" class="edge">
<title>MovieModule&#45;&gt;AppModule</title>
<path fill="none" stroke="black" d="M973,-122.24C973,-137.57 973,-157 973,-157 973,-157 906.93,-157 906.93,-157"/>
<polygon fill="black" stroke="black" points="906.93,-153.5 896.93,-157 906.93,-160.5 906.93,-153.5"/>
</g>
<!-- PersonsModule -->
<g id="node7" class="node">
<title>PersonsModule</title>
<polygon fill="#8dd3c7" stroke="black" points="906.6,-122 903.6,-126 882.6,-126 879.6,-122 803.4,-122 803.4,-86 906.6,-86 906.6,-122"/>
<text text-anchor="middle" x="855" y="-99.8" font-family="Times,serif" font-size="14.00">PersonsModule</text>
</g>
<!-- PersonsModule&#45;&gt;AppModule -->
<g id="edge7" class="edge">
<title>PersonsModule&#45;&gt;AppModule</title>
<path fill="none" stroke="black" d="M855,-122.11C855,-122.11 855,-140.99 855,-140.99"/>
<polygon fill="black" stroke="black" points="851.5,-140.99 855,-150.99 858.5,-140.99 851.5,-140.99"/>
</g>
<!-- ProductionHouseModule -->
<g id="node8" class="node">
<title>ProductionHouseModule</title>
<polygon fill="#8dd3c7" stroke="black" points="785.25,-122 782.25,-126 761.25,-126 758.25,-122 628.75,-122 628.75,-86 785.25,-86 785.25,-122"/>
<text text-anchor="middle" x="707" y="-99.8" font-family="Times,serif" font-size="14.00">ProductionHouseModule</text>
</g>
<!-- ProductionHouseModule&#45;&gt;AppModule -->
<g id="edge8" class="edge">
<title>ProductionHouseModule&#45;&gt;AppModule</title>
<path fill="none" stroke="black" d="M707,-122.24C707,-137.57 707,-157 707,-157 707,-157 802.99,-157 802.99,-157"/>
<polygon fill="black" stroke="black" points="802.99,-160.5 812.99,-157 802.98,-153.5 802.99,-160.5"/>
</g>
<!-- ProfileModule -->
<g id="node9" class="node">
<title>ProfileModule</title>
<polygon fill="#8dd3c7" stroke="black" points="610.65,-122 607.65,-126 586.65,-126 583.65,-122 513.35,-122 513.35,-86 610.65,-86 610.65,-122"/>
<text text-anchor="middle" x="562" y="-99.8" font-family="Times,serif" font-size="14.00">ProfileModule</text>
</g>
<!-- ProfileModule&#45;&gt;AppModule -->
<g id="edge9" class="edge">
<title>ProfileModule&#45;&gt;AppModule</title>
<path fill="none" stroke="black" d="M562,-122.03C562,-139.06 562,-162 562,-162 562,-162 803.33,-162 803.33,-162"/>
<polygon fill="black" stroke="black" points="803.33,-165.5 813.33,-162 803.33,-158.5 803.33,-165.5"/>
</g>
<!-- RateingModule -->
<g id="node10" class="node">
<title>RateingModule</title>
<polygon fill="#8dd3c7" stroke="black" points="495.6,-122 492.6,-126 471.6,-126 468.6,-122 392.4,-122 392.4,-86 495.6,-86 495.6,-122"/>
<text text-anchor="middle" x="444" y="-99.8" font-family="Times,serif" font-size="14.00">RateingModule</text>
</g>
<!-- RateingModule&#45;&gt;AppModule -->
<g id="edge10" class="edge">
<title>RateingModule&#45;&gt;AppModule</title>
<path fill="none" stroke="black" d="M444,-122.22C444,-140.83 444,-167 444,-167 444,-167 803.33,-167 803.33,-167"/>
<polygon fill="black" stroke="black" points="803.33,-170.5 813.33,-167 803.33,-163.5 803.33,-170.5"/>
</g>
<!-- ReviewModule -->
<g id="node11" class="node">
<title>ReviewModule</title>
<polygon fill="#8dd3c7" stroke="black" points="374.31,-122 371.31,-126 350.31,-126 347.31,-122 271.69,-122 271.69,-86 374.31,-86 374.31,-122"/>
<text text-anchor="middle" x="323" y="-99.8" font-family="Times,serif" font-size="14.00">ReviewModule</text>
</g>
<!-- ReviewModule&#45;&gt;AppModule -->
<g id="edge11" class="edge">
<title>ReviewModule&#45;&gt;AppModule</title>
<path fill="none" stroke="black" d="M323,-122.22C323,-142.37 323,-172 323,-172 323,-172 803.25,-172 803.25,-172"/>
<polygon fill="black" stroke="black" points="803.25,-175.5 813.25,-172 803.25,-168.5 803.25,-175.5"/>
</g>
<!-- UsersModule -->
<g id="node12" class="node">
<title>UsersModule</title>
<polygon fill="#8dd3c7" stroke="black" points="253.92,-122 250.92,-126 229.92,-126 226.92,-122 162.08,-122 162.08,-86 253.92,-86 253.92,-122"/>
<text text-anchor="middle" x="208" y="-99.8" font-family="Times,serif" font-size="14.00">UsersModule</text>
</g>
<!-- UsersModule&#45;&gt;AppModule -->
<g id="edge12" class="edge">
<title>UsersModule&#45;&gt;AppModule</title>
<path fill="none" stroke="black" d="M208,-122.04C208,-143.66 208,-177 208,-177 208,-177 803.05,-177 803.05,-177"/>
<polygon fill="black" stroke="black" points="803.05,-180.5 813.05,-177 803.05,-173.5 803.05,-180.5"/>
</g>
<!-- AppService -->
<g id="node14" class="node">
<title>AppService</title>
<ellipse fill="#fdb462" stroke="black" cx="81" cy="-104" rx="56.74" ry="18"/>
<text text-anchor="middle" x="81" y="-99.8" font-family="Times,serif" font-size="14.00">AppService</text>
</g>
<!-- AppService&#45;&gt;AppModule -->
<g id="edge13" class="edge">
<title>AppService&#45;&gt;AppModule</title>
<path fill="none" stroke="black" d="M81,-122.09C81,-145.13 81,-182 81,-182 81,-182 803.11,-182 803.11,-182"/>
<polygon fill="black" stroke="black" points="803.11,-185.5 813.11,-182 803.11,-178.5 803.11,-185.5"/>
</g>
</g>
</svg>
