<?xml version="1.0" encoding="UTF-8" standalone="no"?>
<!DOCTYPE svg PUBLIC "-//W3C//DTD SVG 1.1//EN"
 "http://www.w3.org/Graphics/SVG/1.1/DTD/svg11.dtd">
<!-- Generated by graphviz version 2.47.0 (20210316.0004)
 -->
<!-- Title: dependencies Pages: 1 -->
<svg width="504pt" height="211pt"
 viewBox="0.00 0.00 504.00 211.00" xmlns="http://www.w3.org/2000/svg" xmlns:xlink="http://www.w3.org/1999/xlink">
<g id="graph0" class="graph" transform="scale(1 1) rotate(0) translate(4 207)">
<title>dependencies</title>
<polygon fill="white" stroke="transparent" points="-4,4 -4,-207 500,-207 500,4 -4,4"/>
<text text-anchor="start" x="227.01" y="-42.4" font-family="sans-serif" font-weight="bold" font-size="14.00">Legend</text>
<polygon fill="#ffffb3" stroke="transparent" points="14,-10 14,-30 34,-30 34,-10 14,-10"/>
<text text-anchor="start" x="37.63" y="-15.4" font-family="sans-serif" font-size="14.00"> &#160;Declarations</text>
<polygon fill="#8dd3c7" stroke="transparent" points="127,-10 127,-30 147,-30 147,-10 127,-10"/>
<text text-anchor="start" x="150.73" y="-15.4" font-family="sans-serif" font-size="14.00"> &#160;Module</text>
<polygon fill="#80b1d3" stroke="transparent" points="213,-10 213,-30 233,-30 233,-10 213,-10"/>
<text text-anchor="start" x="236.78" y="-15.4" font-family="sans-serif" font-size="14.00"> &#160;Bootstrap</text>
<polygon fill="#fdb462" stroke="transparent" points="310,-10 310,-30 330,-30 330,-10 310,-10"/>
<text text-anchor="start" x="333.67" y="-15.4" font-family="sans-serif" font-size="14.00"> &#160;Providers</text>
<polygon fill="#fb8072" stroke="transparent" points="406,-10 406,-30 426,-30 426,-10 406,-10"/>
<text text-anchor="start" x="429.73" y="-15.4" font-family="sans-serif" font-size="14.00"> &#160;Exports</text>
<g id="clust1" class="cluster">
<title>cluster_ReviewModule</title>
<polygon fill="none" stroke="black" stroke-dasharray="1,5" points="52.5,-70 52.5,-195 443.5,-195 443.5,-70 52.5,-70"/>
</g>
<g id="clust3" class="cluster">
<title>cluster_ReviewModule_imports</title>
<polygon fill="none" stroke="black" points="222.5,-78 222.5,-130 435.5,-130 435.5,-78 222.5,-78"/>
</g>
<g id="clust6" class="cluster">
<title>cluster_ReviewModule_providers</title>
<polygon fill="none" stroke="black" points="60.5,-78 60.5,-130 214.5,-130 214.5,-78 60.5,-78"/>
</g>
<!-- AuthModule -->
<g id="node1" class="node">
<title>AuthModule</title>
<polygon fill="#8dd3c7" stroke="black" points="427.05,-122 424.05,-126 403.05,-126 400.05,-122 339.95,-122 339.95,-86 427.05,-86 427.05,-122"/>
<text text-anchor="middle" x="383.5" y="-99.8" font-family="Times,serif" font-size="14.00">AuthModule</text>
</g>
<!-- ReviewModule -->
<g id="node3" class="node">
<title>ReviewModule</title>
<polygon fill="#8dd3c7" stroke="black" points="327.81,-187 324.81,-191 303.81,-191 300.81,-187 225.19,-187 225.19,-151 327.81,-151 327.81,-187"/>
<text text-anchor="middle" x="276.5" y="-164.8" font-family="Times,serif" font-size="14.00">ReviewModule</text>
</g>
<!-- AuthModule&#45;&gt;ReviewModule -->
<g id="edge1" class="edge">
<title>AuthModule&#45;&gt;ReviewModule</title>
<path fill="none" stroke="black" d="M383.5,-122.11C383.5,-141.34 383.5,-169 383.5,-169 383.5,-169 337.81,-169 337.81,-169"/>
<polygon fill="black" stroke="black" points="337.81,-165.5 327.81,-169 337.81,-172.5 337.81,-165.5"/>
</g>
<!-- UsersModule -->
<g id="node2" class="node">
<title>UsersModule</title>
<polygon fill="#8dd3c7" stroke="black" points="322.42,-122 319.42,-126 298.42,-126 295.42,-122 230.58,-122 230.58,-86 322.42,-86 322.42,-122"/>
<text text-anchor="middle" x="276.5" y="-99.8" font-family="Times,serif" font-size="14.00">UsersModule</text>
</g>
<!-- UsersModule&#45;&gt;ReviewModule -->
<g id="edge2" class="edge">
<title>UsersModule&#45;&gt;ReviewModule</title>
<path fill="none" stroke="black" d="M276.5,-122.11C276.5,-122.11 276.5,-140.99 276.5,-140.99"/>
<polygon fill="black" stroke="black" points="273,-140.99 276.5,-150.99 280,-140.99 273,-140.99"/>
</g>
<!-- ReviewService -->
<g id="node4" class="node">
<title>ReviewService</title>
<ellipse fill="#fdb462" stroke="black" cx="137.5" cy="-104" rx="69.48" ry="18"/>
<text text-anchor="middle" x="137.5" y="-99.8" font-family="Times,serif" font-size="14.00">ReviewService</text>
</g>
<!-- ReviewService&#45;&gt;ReviewModule -->
<g id="edge3" class="edge">
<title>ReviewService&#45;&gt;ReviewModule</title>
<path fill="none" stroke="black" d="M137.5,-122.11C137.5,-141.34 137.5,-169 137.5,-169 137.5,-169 215.14,-169 215.14,-169"/>
<polygon fill="black" stroke="black" points="215.14,-172.5 225.14,-169 215.14,-165.5 215.14,-172.5"/>
</g>
</g>
</svg>
