<?xml version="1.0" encoding="UTF-8" standalone="no"?>
<!DOCTYPE svg PUBLIC "-//W3C//DTD SVG 1.1//EN"
 "http://www.w3.org/Graphics/SVG/1.1/DTD/svg11.dtd">
<!-- Generated by graphviz version 2.47.0 (20210316.0004)
 -->
<!-- Title: dependencies Pages: 1 -->
<svg width="645pt" height="211pt"
 viewBox="0.00 0.00 645.00 211.00" xmlns="http://www.w3.org/2000/svg" xmlns:xlink="http://www.w3.org/1999/xlink">
<g id="graph0" class="graph" transform="scale(1 1) rotate(0) translate(4 207)">
<title>dependencies</title>
<polygon fill="white" stroke="transparent" points="-4,4 -4,-207 641,-207 641,4 -4,4"/>
<text text-anchor="start" x="297.51" y="-42.4" font-family="sans-serif" font-weight="bold" font-size="14.00">Legend</text>
<polygon fill="#ffffb3" stroke="transparent" points="84.5,-10 84.5,-30 104.5,-30 104.5,-10 84.5,-10"/>
<text text-anchor="start" x="108.13" y="-15.4" font-family="sans-serif" font-size="14.00"> &#160;Declarations</text>
<polygon fill="#8dd3c7" stroke="transparent" points="197.5,-10 197.5,-30 217.5,-30 217.5,-10 197.5,-10"/>
<text text-anchor="start" x="221.23" y="-15.4" font-family="sans-serif" font-size="14.00"> &#160;Module</text>
<polygon fill="#80b1d3" stroke="transparent" points="283.5,-10 283.5,-30 303.5,-30 303.5,-10 283.5,-10"/>
<text text-anchor="start" x="307.28" y="-15.4" font-family="sans-serif" font-size="14.00"> &#160;Bootstrap</text>
<polygon fill="#fdb462" stroke="transparent" points="380.5,-10 380.5,-30 400.5,-30 400.5,-10 380.5,-10"/>
<text text-anchor="start" x="404.17" y="-15.4" font-family="sans-serif" font-size="14.00"> &#160;Providers</text>
<polygon fill="#fb8072" stroke="transparent" points="476.5,-10 476.5,-30 496.5,-30 496.5,-10 476.5,-10"/>
<text text-anchor="start" x="500.23" y="-15.4" font-family="sans-serif" font-size="14.00"> &#160;Exports</text>
<g id="clust1" class="cluster">
<title>cluster_ProductionHouseModule</title>
<polygon fill="none" stroke="black" stroke-dasharray="1,5" points="8,-70 8,-195 629,-195 629,-70 8,-70"/>
</g>
<g id="clust6" class="cluster">
<title>cluster_ProductionHouseModule_providers</title>
<polygon fill="none" stroke="black" points="237,-78 237,-130 621,-130 621,-78 237,-78"/>
</g>
<g id="clust3" class="cluster">
<title>cluster_ProductionHouseModule_imports</title>
<polygon fill="none" stroke="black" points="16,-78 16,-130 229,-130 229,-78 16,-78"/>
</g>
<!-- AuthModule -->
<g id="node1" class="node">
<title>AuthModule</title>
<polygon fill="#8dd3c7" stroke="black" points="220.55,-122 217.55,-126 196.55,-126 193.55,-122 133.45,-122 133.45,-86 220.55,-86 220.55,-122"/>
<text text-anchor="middle" x="177" y="-99.8" font-family="Times,serif" font-size="14.00">AuthModule</text>
</g>
<!-- ProductionHouseModule -->
<g id="node3" class="node">
<title>ProductionHouseModule</title>
<polygon fill="#8dd3c7" stroke="black" points="342.25,-187 339.25,-191 318.25,-191 315.25,-187 185.75,-187 185.75,-151 342.25,-151 342.25,-187"/>
<text text-anchor="middle" x="264" y="-164.8" font-family="Times,serif" font-size="14.00">ProductionHouseModule</text>
</g>
<!-- AuthModule&#45;&gt;ProductionHouseModule -->
<g id="edge1" class="edge">
<title>AuthModule&#45;&gt;ProductionHouseModule</title>
<path fill="none" stroke="black" d="M203.2,-122.11C203.2,-122.11 203.2,-140.99 203.2,-140.99"/>
<polygon fill="black" stroke="black" points="199.7,-140.99 203.2,-150.99 206.7,-140.99 199.7,-140.99"/>
</g>
<!-- UsersModule -->
<g id="node2" class="node">
<title>UsersModule</title>
<polygon fill="#8dd3c7" stroke="black" points="115.92,-122 112.92,-126 91.92,-126 88.92,-122 24.08,-122 24.08,-86 115.92,-86 115.92,-122"/>
<text text-anchor="middle" x="70" y="-99.8" font-family="Times,serif" font-size="14.00">UsersModule</text>
</g>
<!-- UsersModule&#45;&gt;ProductionHouseModule -->
<g id="edge2" class="edge">
<title>UsersModule&#45;&gt;ProductionHouseModule</title>
<path fill="none" stroke="black" d="M70,-122.11C70,-141.34 70,-169 70,-169 70,-169 175.65,-169 175.65,-169"/>
<polygon fill="black" stroke="black" points="175.65,-172.5 185.65,-169 175.65,-165.5 175.65,-172.5"/>
</g>
<!-- JwtAuthGuard -->
<g id="node4" class="node">
<title>JwtAuthGuard</title>
<ellipse fill="#fdb462" stroke="black" cx="545" cy="-104" rx="67.78" ry="18"/>
<text text-anchor="middle" x="545" y="-99.8" font-family="Times,serif" font-size="14.00">JwtAuthGuard</text>
</g>
<!-- JwtAuthGuard&#45;&gt;ProductionHouseModule -->
<g id="edge3" class="edge">
<title>JwtAuthGuard&#45;&gt;ProductionHouseModule</title>
<path fill="none" stroke="black" d="M545,-122.11C545,-141.34 545,-169 545,-169 545,-169 352.27,-169 352.27,-169"/>
<polygon fill="black" stroke="black" points="352.27,-165.5 342.27,-169 352.27,-172.5 352.27,-165.5"/>
</g>
<!-- ProductionHouseService -->
<g id="node5" class="node">
<title>ProductionHouseService</title>
<ellipse fill="#fdb462" stroke="black" cx="352" cy="-104" rx="107.08" ry="18"/>
<text text-anchor="middle" x="352" y="-99.8" font-family="Times,serif" font-size="14.00">ProductionHouseService</text>
</g>
<!-- ProductionHouseService&#45;&gt;ProductionHouseModule -->
<g id="edge4" class="edge">
<title>ProductionHouseService&#45;&gt;ProductionHouseModule</title>
<path fill="none" stroke="black" d="M293.67,-119.4C293.67,-119.4 293.67,-140.94 293.67,-140.94"/>
<polygon fill="black" stroke="black" points="290.17,-140.94 293.67,-150.94 297.17,-140.94 290.17,-140.94"/>
</g>
</g>
</svg>
