<?xml version="1.0" encoding="UTF-8" standalone="no"?>
<!DOCTYPE svg PUBLIC "-//W3C//DTD SVG 1.1//EN"
 "http://www.w3.org/Graphics/SVG/1.1/DTD/svg11.dtd">
<!-- Generated by graphviz version 2.47.0 (20210316.0004)
 -->
<!-- Title: dependencies Pages: 1 -->
<svg width="3654pt" height="447pt"
 viewBox="0.00 0.00 3654.00 447.00" xmlns="http://www.w3.org/2000/svg" xmlns:xlink="http://www.w3.org/1999/xlink">
<g id="graph0" class="graph" transform="scale(1 1) rotate(0) translate(4 443)">
<title>dependencies</title>
<polygon fill="white" stroke="transparent" points="-4,4 -4,-443 3650,-443 3650,4 -4,4"/>
<text text-anchor="start" x="1802.01" y="-42.4" font-family="sans-serif" font-weight="bold" font-size="14.00">Legend</text>
<polygon fill="#ffffb3" stroke="transparent" points="1589,-10 1589,-30 1609,-30 1609,-10 1589,-10"/>
<text text-anchor="start" x="1612.63" y="-15.4" font-family="sans-serif" font-size="14.00"> &#160;Declarations</text>
<polygon fill="#8dd3c7" stroke="transparent" points="1702,-10 1702,-30 1722,-30 1722,-10 1702,-10"/>
<text text-anchor="start" x="1725.73" y="-15.4" font-family="sans-serif" font-size="14.00"> &#160;Module</text>
<polygon fill="#80b1d3" stroke="transparent" points="1788,-10 1788,-30 1808,-30 1808,-10 1788,-10"/>
<text text-anchor="start" x="1811.78" y="-15.4" font-family="sans-serif" font-size="14.00"> &#160;Bootstrap</text>
<polygon fill="#fdb462" stroke="transparent" points="1885,-10 1885,-30 1905,-30 1905,-10 1885,-10"/>
<text text-anchor="start" x="1908.67" y="-15.4" font-family="sans-serif" font-size="14.00"> &#160;Providers</text>
<polygon fill="#fb8072" stroke="transparent" points="1981,-10 1981,-30 2001,-30 2001,-10 1981,-10"/>
<text text-anchor="start" x="2004.73" y="-15.4" font-family="sans-serif" font-size="14.00"> &#160;Exports</text>
<g id="clust1" class="cluster">
<title>cluster_AppModule</title>
<polygon fill="none" stroke="black" stroke-dasharray="1,5" points="1108,-70 1108,-431 2475,-431 2475,-70 1108,-70"/>
</g>
<g id="clust3" class="cluster">
<title>cluster_AppModule_imports</title>
<polygon fill="none" stroke="black" points="1426,-78 1426,-423 2467,-423 2467,-78 1426,-78"/>
</g>
<g id="clust6" class="cluster">
<title>cluster_AppModule_providers</title>
<polygon fill="none" stroke="black" points="1288,-306 1288,-358 1418,-358 1418,-306 1288,-306"/>
</g>
<g id="clust7" class="cluster">
<title>cluster_AuthModule</title>
<polygon fill="none" stroke="black" stroke-dasharray="1,5" points="2483,-70 2483,-138 3638,-138 3638,-70 2483,-70"/>
</g>
<g id="clust10" class="cluster">
<title>cluster_AuthModule_exports</title>
<polygon fill="none" stroke="black" points="2491,-78 2491,-130 2713,-130 2713,-78 2491,-78"/>
</g>
<g id="clust12" class="cluster">
<title>cluster_AuthModule_providers</title>
<polygon fill="none" stroke="black" points="2721,-78 2721,-130 3630,-130 3630,-78 2721,-78"/>
</g>
<g id="clust19" class="cluster">
<title>cluster_GenresModule</title>
<polygon fill="none" stroke="black" stroke-dasharray="1,5" points="2483,-146 2483,-214 2649,-214 2649,-146 2483,-146"/>
</g>
<g id="clust24" class="cluster">
<title>cluster_GenresModule_providers</title>
<polygon fill="none" stroke="black" points="2491,-154 2491,-206 2641,-206 2641,-154 2491,-154"/>
</g>
<g id="clust25" class="cluster">
<title>cluster_MovieDirectorModule</title>
<polygon fill="none" stroke="black" stroke-dasharray="1,5" points="8,-298 8,-366 402,-366 402,-298 8,-298"/>
</g>
<g id="clust28" class="cluster">
<title>cluster_MovieDirectorModule_exports</title>
<polygon fill="none" stroke="black" points="234,-306 234,-358 394,-358 394,-306 234,-306"/>
</g>
<g id="clust30" class="cluster">
<title>cluster_MovieDirectorModule_providers</title>
<polygon fill="none" stroke="black" points="16,-306 16,-358 226,-358 226,-306 16,-306"/>
</g>
<g id="clust31" class="cluster">
<title>cluster_MovieGenresModule</title>
<polygon fill="none" stroke="black" stroke-dasharray="1,5" points="410,-298 410,-366 790,-366 790,-298 410,-298"/>
</g>
<g id="clust34" class="cluster">
<title>cluster_MovieGenresModule_exports</title>
<polygon fill="none" stroke="black" points="628,-306 628,-358 782,-358 782,-306 628,-306"/>
</g>
<g id="clust36" class="cluster">
<title>cluster_MovieGenresModule_providers</title>
<polygon fill="none" stroke="black" points="418,-306 418,-358 620,-358 620,-306 418,-306"/>
</g>
<g id="clust37" class="cluster">
<title>cluster_MovieModule</title>
<polygon fill="none" stroke="black" stroke-dasharray="1,5" points="2660,-222 2660,-290 3136,-290 3136,-222 2660,-222"/>
</g>
<g id="clust40" class="cluster">
<title>cluster_MovieModule_exports</title>
<polygon fill="none" stroke="black" points="3014,-230 3014,-282 3128,-282 3128,-230 3014,-230"/>
</g>
<g id="clust42" class="cluster">
<title>cluster_MovieModule_providers</title>
<polygon fill="none" stroke="black" points="2668,-230 2668,-282 3006,-282 3006,-230 2668,-230"/>
</g>
<g id="clust43" class="cluster">
<title>cluster_PersonsModule</title>
<polygon fill="none" stroke="black" stroke-dasharray="1,5" points="798,-298 798,-366 1100,-366 1100,-298 798,-298"/>
</g>
<g id="clust46" class="cluster">
<title>cluster_PersonsModule_exports</title>
<polygon fill="none" stroke="black" points="970,-306 970,-358 1092,-358 1092,-306 970,-306"/>
</g>
<g id="clust48" class="cluster">
<title>cluster_PersonsModule_providers</title>
<polygon fill="none" stroke="black" points="806,-306 806,-358 962,-358 962,-306 806,-306"/>
</g>
<g id="clust49" class="cluster">
<title>cluster_ProductionHouseModule</title>
<polygon fill="none" stroke="black" stroke-dasharray="1,5" points="2657,-146 2657,-214 2903,-214 2903,-146 2657,-146"/>
</g>
<g id="clust54" class="cluster">
<title>cluster_ProductionHouseModule_providers</title>
<polygon fill="none" stroke="black" points="2665,-154 2665,-206 2895,-206 2895,-154 2665,-154"/>
</g>
<g id="clust55" class="cluster">
<title>cluster_ProfileModule</title>
<polygon fill="none" stroke="black" stroke-dasharray="1,5" points="2911,-146 2911,-214 3075,-214 3075,-146 2911,-146"/>
</g>
<g id="clust60" class="cluster">
<title>cluster_ProfileModule_providers</title>
<polygon fill="none" stroke="black" points="2919,-154 2919,-206 3067,-206 3067,-154 2919,-154"/>
</g>
<g id="clust61" class="cluster">
<title>cluster_RateingModule</title>
<polygon fill="none" stroke="black" stroke-dasharray="1,5" points="3327,-298 3327,-366 3491,-366 3491,-298 3327,-298"/>
</g>
<g id="clust66" class="cluster">
<title>cluster_RateingModule_providers</title>
<polygon fill="none" stroke="black" points="3335,-306 3335,-358 3483,-358 3483,-306 3335,-306"/>
</g>
<g id="clust67" class="cluster">
<title>cluster_ReviewModule</title>
<polygon fill="none" stroke="black" stroke-dasharray="1,5" points="3083,-146 3083,-214 3253,-214 3253,-146 3083,-146"/>
</g>
<g id="clust72" class="cluster">
<title>cluster_ReviewModule_providers</title>
<polygon fill="none" stroke="black" points="3091,-154 3091,-206 3245,-206 3245,-154 3091,-154"/>
</g>
<g id="clust73" class="cluster">
<title>cluster_UsersModule</title>
<polygon fill="none" stroke="black" stroke-dasharray="1,5" points="826,-146 826,-214 1100,-214 1100,-146 826,-146"/>
</g>
<g id="clust76" class="cluster">
<title>cluster_UsersModule_exports</title>
<polygon fill="none" stroke="black" points="982,-154 982,-206 1092,-206 1092,-154 982,-154"/>
</g>
<g id="clust78" class="cluster">
<title>cluster_UsersModule_providers</title>
<polygon fill="none" stroke="black" points="834,-154 834,-206 974,-206 974,-154 834,-154"/>
</g>
<!-- AuthModule -->
<g id="node1" class="node">
<title>AuthModule</title>
<polygon fill="#8dd3c7" stroke="black" points="2360.55,-198 2357.55,-202 2336.55,-202 2333.55,-198 2273.45,-198 2273.45,-162 2360.55,-162 2360.55,-198"/>
<text text-anchor="middle" x="2317" y="-175.8" font-family="Times,serif" font-size="14.00">AuthModule</text>
</g>
<!-- GenresModule -->
<g id="node3" class="node">
<title>GenresModule</title>
<polygon fill="#8dd3c7" stroke="black" points="2123.69,-274 2120.69,-278 2099.69,-278 2096.69,-274 2024.31,-274 2024.31,-238 2123.69,-238 2123.69,-274"/>
<text text-anchor="middle" x="2074" y="-251.8" font-family="Times,serif" font-size="14.00">GenresModule</text>
</g>
<!-- AuthModule&#45;&gt;GenresModule -->
<g id="edge23" class="edge">
<title>AuthModule&#45;&gt;GenresModule</title>
<path fill="none" stroke="black" d="M2273.23,-193C2200.84,-193 2064.08,-193 2064.08,-193 2064.08,-193 2064.08,-227.78 2064.08,-227.78"/>
<polygon fill="black" stroke="black" points="2060.58,-227.78 2064.08,-237.78 2067.58,-227.78 2060.58,-227.78"/>
</g>
<!-- MovieModule -->
<g id="node6" class="node">
<title>MovieModule</title>
<polygon fill="#8dd3c7" stroke="black" points="2268.1,-350 2265.1,-354 2244.1,-354 2241.1,-350 2171.9,-350 2171.9,-314 2268.1,-314 2268.1,-350"/>
<text text-anchor="middle" x="2220" y="-327.8" font-family="Times,serif" font-size="14.00">MovieModule</text>
</g>
<!-- AuthModule&#45;&gt;MovieModule -->
<g id="edge31" class="edge">
<title>AuthModule&#45;&gt;MovieModule</title>
<path fill="none" stroke="black" d="M2304.53,-198.02C2304.53,-235.83 2304.53,-320 2304.53,-320 2304.53,-320 2278.19,-320 2278.19,-320"/>
<polygon fill="black" stroke="black" points="2278.19,-316.5 2268.19,-320 2278.19,-323.5 2278.19,-316.5"/>
</g>
<!-- PersonsModule -->
<g id="node7" class="node">
<title>PersonsModule</title>
<polygon fill="#8dd3c7" stroke="black" points="1850.6,-274 1847.6,-278 1826.6,-278 1823.6,-274 1747.4,-274 1747.4,-238 1850.6,-238 1850.6,-274"/>
<text text-anchor="middle" x="1799" y="-251.8" font-family="Times,serif" font-size="14.00">PersonsModule</text>
</g>
<!-- AuthModule&#45;&gt;PersonsModule -->
<g id="edge42" class="edge">
<title>AuthModule&#45;&gt;PersonsModule</title>
<path fill="none" stroke="black" d="M2273.2,-183C2145.39,-183 1781.82,-183 1781.82,-183 1781.82,-183 1781.82,-227.96 1781.82,-227.96"/>
<polygon fill="black" stroke="black" points="1778.32,-227.96 1781.82,-237.96 1785.32,-227.96 1778.32,-227.96"/>
</g>
<!-- ProductionHouseModule -->
<g id="node8" class="node">
<title>ProductionHouseModule</title>
<polygon fill="#8dd3c7" stroke="black" points="2298.25,-274 2295.25,-278 2274.25,-278 2271.25,-274 2141.75,-274 2141.75,-238 2298.25,-238 2298.25,-274"/>
<text text-anchor="middle" x="2220" y="-251.8" font-family="Times,serif" font-size="14.00">ProductionHouseModule</text>
</g>
<!-- AuthModule&#45;&gt;ProductionHouseModule -->
<g id="edge47" class="edge">
<title>AuthModule&#45;&gt;ProductionHouseModule</title>
<path fill="none" stroke="black" d="M2279.51,-198.01C2279.51,-198.01 2279.51,-227.85 2279.51,-227.85"/>
<polygon fill="black" stroke="black" points="2276.01,-227.85 2279.51,-237.85 2283.01,-227.85 2276.01,-227.85"/>
</g>
<!-- ProfileModule -->
<g id="node9" class="node">
<title>ProfileModule</title>
<polygon fill="#8dd3c7" stroke="black" points="2006.65,-274 2003.65,-278 1982.65,-278 1979.65,-274 1909.35,-274 1909.35,-238 2006.65,-238 2006.65,-274"/>
<text text-anchor="middle" x="1958" y="-251.8" font-family="Times,serif" font-size="14.00">ProfileModule</text>
</g>
<!-- AuthModule&#45;&gt;ProfileModule -->
<g id="edge51" class="edge">
<title>AuthModule&#45;&gt;ProfileModule</title>
<path fill="none" stroke="black" d="M2273.22,-188C2180.77,-188 1974.08,-188 1974.08,-188 1974.08,-188 1974.08,-227.78 1974.08,-227.78"/>
<polygon fill="black" stroke="black" points="1970.58,-227.78 1974.08,-237.78 1977.58,-227.78 1970.58,-227.78"/>
</g>
<!-- RateingModule -->
<g id="node10" class="node">
<title>RateingModule</title>
<polygon fill="#8dd3c7" stroke="black" points="2364.6,-415 2361.6,-419 2340.6,-419 2337.6,-415 2261.4,-415 2261.4,-379 2364.6,-379 2364.6,-415"/>
<text text-anchor="middle" x="2313" y="-392.8" font-family="Times,serif" font-size="14.00">RateingModule</text>
</g>
<!-- AuthModule&#45;&gt;RateingModule -->
<g id="edge54" class="edge">
<title>AuthModule&#45;&gt;RateingModule</title>
<path fill="none" stroke="black" d="M2310.69,-198.13C2310.69,-198.13 2310.69,-368.77 2310.69,-368.77"/>
<polygon fill="black" stroke="black" points="2307.19,-368.77 2310.69,-378.77 2314.19,-368.77 2307.19,-368.77"/>
</g>
<!-- ReviewModule -->
<g id="node11" class="node">
<title>ReviewModule</title>
<polygon fill="#8dd3c7" stroke="black" points="2419.31,-274 2416.31,-278 2395.31,-278 2392.31,-274 2316.69,-274 2316.69,-238 2419.31,-238 2419.31,-274"/>
<text text-anchor="middle" x="2368" y="-251.8" font-family="Times,serif" font-size="14.00">ReviewModule</text>
</g>
<!-- AuthModule&#45;&gt;ReviewModule -->
<g id="edge59" class="edge">
<title>AuthModule&#45;&gt;ReviewModule</title>
<path fill="none" stroke="black" d="M2338.81,-198.01C2338.81,-198.01 2338.81,-227.85 2338.81,-227.85"/>
<polygon fill="black" stroke="black" points="2335.31,-227.85 2338.81,-237.85 2342.31,-227.85 2335.31,-227.85"/>
</g>
<!-- AppModule -->
<g id="node13" class="node">
<title>AppModule</title>
<polygon fill="#8dd3c7" stroke="black" points="1278.66,-415 1275.66,-419 1254.66,-419 1251.66,-415 1195.34,-415 1195.34,-379 1278.66,-379 1278.66,-415"/>
<text text-anchor="middle" x="1237" y="-392.8" font-family="Times,serif" font-size="14.00">AppModule</text>
</g>
<!-- AuthModule&#45;&gt;AppModule -->
<g id="edge1" class="edge">
<title>AuthModule&#45;&gt;AppModule</title>
<path fill="none" stroke="black" d="M2273.44,-178C2069.98,-178 1223.06,-178 1223.06,-178 1223.06,-178 1223.06,-368.7 1223.06,-368.7"/>
<polygon fill="black" stroke="black" points="1219.56,-368.7 1223.06,-378.7 1226.56,-368.7 1219.56,-368.7"/>
</g>
<!-- JwtAuthGuard  -->
<g id="node15" class="node">
<title>JwtAuthGuard </title>
<polygon fill="#fb8072" stroke="black" points="2704.92,-122 2603.08,-122 2603.08,-86 2704.92,-86 2704.92,-122"/>
<text text-anchor="middle" x="2654" y="-99.8" font-family="Times,serif" font-size="14.00">JwtAuthGuard </text>
</g>
<!-- AuthModule&#45;&gt;JwtAuthGuard  -->
<g id="edge15" class="edge">
<title>AuthModule&#45;&gt;JwtAuthGuard </title>
<path fill="none" stroke="black" stroke-dasharray="5,2" d="M2282.95,-161.82C2282.95,-148.96 2282.95,-134 2282.95,-134 2282.95,-134 2618.19,-134 2618.19,-134 2618.19,-134 2618.19,-132.14 2618.19,-132.14"/>
<polygon fill="black" stroke="black" points="2621.69,-132.14 2618.19,-122.14 2614.69,-132.14 2621.69,-132.14"/>
</g>
<!-- RolesGuard  -->
<g id="node16" class="node">
<title>RolesGuard </title>
<polygon fill="#fb8072" stroke="black" points="2585.37,-122 2498.63,-122 2498.63,-86 2585.37,-86 2585.37,-122"/>
<text text-anchor="middle" x="2542" y="-99.8" font-family="Times,serif" font-size="14.00">RolesGuard </text>
</g>
<!-- AuthModule&#45;&gt;RolesGuard  -->
<g id="edge16" class="edge">
<title>AuthModule&#45;&gt;RolesGuard </title>
<path fill="none" stroke="black" stroke-dasharray="5,2" d="M2292.68,-161.83C2292.68,-140.5 2292.68,-108 2292.68,-108 2292.68,-108 2488.57,-108 2488.57,-108"/>
<polygon fill="black" stroke="black" points="2488.57,-111.5 2498.57,-108 2488.57,-104.5 2488.57,-111.5"/>
</g>
<!-- DatabaseModule -->
<g id="node2" class="node">
<title>DatabaseModule</title>
<polygon fill="#8dd3c7" stroke="black" points="1544.35,-122 1541.35,-126 1520.35,-126 1517.35,-122 1433.65,-122 1433.65,-86 1544.35,-86 1544.35,-122"/>
<text text-anchor="middle" x="1489" y="-99.8" font-family="Times,serif" font-size="14.00">DatabaseModule</text>
</g>
<!-- DatabaseModule&#45;&gt;AppModule -->
<g id="edge2" class="edge">
<title>DatabaseModule&#45;&gt;AppModule</title>
<path fill="none" stroke="black" d="M1433.37,-104C1351.75,-104 1209.11,-104 1209.11,-104 1209.11,-104 1209.11,-368.67 1209.11,-368.67"/>
<polygon fill="black" stroke="black" points="1205.61,-368.67 1209.11,-378.67 1212.61,-368.67 1205.61,-368.67"/>
</g>
<!-- GenresModule&#45;&gt;MovieModule -->
<g id="edge32" class="edge">
<title>GenresModule&#45;&gt;MovieModule</title>
<path fill="none" stroke="black" d="M2090.53,-274.17C2090.53,-293.09 2090.53,-320 2090.53,-320 2090.53,-320 2161.79,-320 2161.79,-320"/>
<polygon fill="black" stroke="black" points="2161.79,-323.5 2171.79,-320 2161.79,-316.5 2161.79,-323.5"/>
</g>
<!-- GenresModule&#45;&gt;AppModule -->
<g id="edge3" class="edge">
<title>GenresModule&#45;&gt;AppModule</title>
<path fill="none" stroke="black" d="M2057.47,-274.07C2057.47,-312.94 2057.47,-401 2057.47,-401 2057.47,-401 1288.82,-401 1288.82,-401"/>
<polygon fill="black" stroke="black" points="1288.82,-397.5 1278.82,-401 1288.82,-404.5 1288.82,-397.5"/>
</g>
<!-- MovieDirectorModule -->
<g id="node4" class="node">
<title>MovieDirectorModule</title>
<polygon fill="#8dd3c7" stroke="black" points="1576.24,-274 1573.24,-278 1552.24,-278 1549.24,-274 1433.76,-274 1433.76,-238 1576.24,-238 1576.24,-274"/>
<text text-anchor="middle" x="1505" y="-251.8" font-family="Times,serif" font-size="14.00">MovieDirectorModule</text>
</g>
<!-- MovieDirectorModule&#45;&gt;MovieModule -->
<g id="edge33" class="edge">
<title>MovieDirectorModule&#45;&gt;MovieModule</title>
<path fill="none" stroke="black" d="M1505,-274.23C1505,-300.01 1505,-344 1505,-344 1505,-344 2161.7,-344 2161.7,-344"/>
<polygon fill="black" stroke="black" points="2161.7,-347.5 2171.7,-344 2161.7,-340.5 2161.7,-347.5"/>
</g>
<!-- MovieDirectorModule&#45;&gt;AppModule -->
<g id="edge4" class="edge">
<title>MovieDirectorModule&#45;&gt;AppModule</title>
<path fill="none" stroke="black" d="M1433.53,-265C1354.14,-265 1237,-265 1237,-265 1237,-265 1237,-368.92 1237,-368.92"/>
<polygon fill="black" stroke="black" points="1233.5,-368.92 1237,-378.92 1240.5,-368.92 1233.5,-368.92"/>
</g>
<!-- MovieDirectorService  -->
<g id="node24" class="node">
<title>MovieDirectorService </title>
<polygon fill="#fb8072" stroke="black" points="386.17,-350 241.83,-350 241.83,-314 386.17,-314 386.17,-350"/>
<text text-anchor="middle" x="314" y="-327.8" font-family="Times,serif" font-size="14.00">MovieDirectorService </text>
</g>
<!-- MovieDirectorModule&#45;&gt;MovieDirectorService  -->
<g id="edge27" class="edge">
<title>MovieDirectorModule&#45;&gt;MovieDirectorService </title>
<path fill="none" stroke="black" stroke-dasharray="5,2" d="M1433.62,-256C1176.67,-256 314,-256 314,-256 314,-256 314,-303.99 314,-303.99"/>
<polygon fill="black" stroke="black" points="310.5,-303.99 314,-313.99 317.5,-303.99 310.5,-303.99"/>
</g>
<!-- MovieGenresModule -->
<g id="node5" class="node">
<title>MovieGenresModule</title>
<polygon fill="#8dd3c7" stroke="black" points="1729.74,-274 1726.74,-278 1705.74,-278 1702.74,-274 1594.26,-274 1594.26,-238 1729.74,-238 1729.74,-274"/>
<text text-anchor="middle" x="1662" y="-251.8" font-family="Times,serif" font-size="14.00">MovieGenresModule</text>
</g>
<!-- MovieGenresModule&#45;&gt;MovieModule -->
<g id="edge34" class="edge">
<title>MovieGenresModule&#45;&gt;MovieModule</title>
<path fill="none" stroke="black" d="M1702.72,-274.2C1702.72,-298.36 1702.72,-338 1702.72,-338 1702.72,-338 2161.8,-338 2161.8,-338"/>
<polygon fill="black" stroke="black" points="2161.8,-341.5 2171.8,-338 2161.8,-334.5 2161.8,-341.5"/>
</g>
<!-- MovieGenresModule&#45;&gt;AppModule -->
<g id="edge5" class="edge">
<title>MovieGenresModule&#45;&gt;AppModule</title>
<path fill="none" stroke="black" d="M1675.57,-274.21C1675.57,-310.21 1675.57,-387 1675.57,-387 1675.57,-387 1289.05,-387 1289.05,-387"/>
<polygon fill="black" stroke="black" points="1289.05,-383.5 1279.05,-387 1289.05,-390.5 1289.05,-383.5"/>
</g>
<!-- MovieGenresService  -->
<g id="node26" class="node">
<title>MovieGenresService </title>
<polygon fill="#fb8072" stroke="black" points="773.67,-350 636.33,-350 636.33,-314 773.67,-314 773.67,-350"/>
<text text-anchor="middle" x="705" y="-327.8" font-family="Times,serif" font-size="14.00">MovieGenresService </text>
</g>
<!-- MovieGenresModule&#45;&gt;MovieGenresService  -->
<g id="edge29" class="edge">
<title>MovieGenresModule&#45;&gt;MovieGenresService </title>
<path fill="none" stroke="black" stroke-dasharray="5,2" d="M1648.43,-274.14C1648.43,-280.46 1648.43,-286 1648.43,-286 1648.43,-286 705,-286 705,-286 705,-286 705,-303.82 705,-303.82"/>
<polygon fill="black" stroke="black" points="701.5,-303.82 705,-313.82 708.5,-303.82 701.5,-303.82"/>
</g>
<!-- MovieModule&#45;&gt;RateingModule -->
<g id="edge55" class="edge">
<title>MovieModule&#45;&gt;RateingModule</title>
<path fill="none" stroke="black" d="M2268.23,-345C2276.89,-345 2283.21,-345 2283.21,-345 2283.21,-345 2283.21,-368.81 2283.21,-368.81"/>
<polygon fill="black" stroke="black" points="2279.71,-368.81 2283.21,-378.81 2286.71,-368.81 2279.71,-368.81"/>
</g>
<!-- MovieModule&#45;&gt;AppModule -->
<g id="edge6" class="edge">
<title>MovieModule&#45;&gt;AppModule</title>
<path fill="none" stroke="black" d="M2216.7,-350.01C2216.7,-372.49 2216.7,-408 2216.7,-408 2216.7,-408 1288.78,-408 1288.78,-408"/>
<polygon fill="black" stroke="black" points="1288.78,-404.5 1278.78,-408 1288.78,-411.5 1288.78,-404.5"/>
</g>
<!-- MovieService  -->
<g id="node28" class="node">
<title>MovieService </title>
<polygon fill="#fb8072" stroke="black" points="3120.03,-274 3021.97,-274 3021.97,-238 3120.03,-238 3120.03,-274"/>
<text text-anchor="middle" x="3071" y="-251.8" font-family="Times,serif" font-size="14.00">MovieService </text>
</g>
<!-- MovieModule&#45;&gt;MovieService  -->
<g id="edge38" class="edge">
<title>MovieModule&#45;&gt;MovieService </title>
<path fill="none" stroke="black" stroke-dasharray="5,2" d="M2268.19,-335C2448.22,-335 3071,-335 3071,-335 3071,-335 3071,-284.32 3071,-284.32"/>
<polygon fill="black" stroke="black" points="3074.5,-284.32 3071,-274.32 3067.5,-284.32 3074.5,-284.32"/>
</g>
<!-- PersonsModule&#45;&gt;MovieModule -->
<g id="edge35" class="edge">
<title>PersonsModule&#45;&gt;MovieModule</title>
<path fill="none" stroke="black" d="M1829.93,-274.01C1829.93,-296.49 1829.93,-332 1829.93,-332 1829.93,-332 2161.78,-332 2161.78,-332"/>
<polygon fill="black" stroke="black" points="2161.78,-335.5 2171.78,-332 2161.78,-328.5 2161.78,-335.5"/>
</g>
<!-- PersonsModule&#45;&gt;AppModule -->
<g id="edge7" class="edge">
<title>PersonsModule&#45;&gt;AppModule</title>
<path fill="none" stroke="black" d="M1809.31,-274.07C1809.31,-310.65 1809.31,-390 1809.31,-390 1809.31,-390 1289.08,-390 1289.08,-390"/>
<polygon fill="black" stroke="black" points="1289.08,-386.5 1279.08,-390 1289.08,-393.5 1289.08,-386.5"/>
</g>
<!-- PersonsService  -->
<g id="node31" class="node">
<title>PersonsService </title>
<polygon fill="#fb8072" stroke="black" points="1083.52,-350 978.48,-350 978.48,-314 1083.52,-314 1083.52,-350"/>
<text text-anchor="middle" x="1031" y="-327.8" font-family="Times,serif" font-size="14.00">PersonsService </text>
</g>
<!-- PersonsModule&#45;&gt;PersonsService  -->
<g id="edge44" class="edge">
<title>PersonsModule&#45;&gt;PersonsService </title>
<path fill="none" stroke="black" stroke-dasharray="5,2" d="M1788.69,-274.1C1788.69,-285.09 1788.69,-297 1788.69,-297 1788.69,-297 1036.92,-297 1036.92,-297 1036.92,-297 1036.92,-303.68 1036.92,-303.68"/>
<polygon fill="black" stroke="black" points="1033.42,-303.68 1036.92,-313.68 1040.42,-303.68 1033.42,-303.68"/>
</g>
<!-- ProductionHouseModule&#45;&gt;MovieModule -->
<g id="edge36" class="edge">
<title>ProductionHouseModule&#45;&gt;MovieModule</title>
<path fill="none" stroke="black" d="M2203.98,-274.01C2203.98,-274.01 2203.98,-303.85 2203.98,-303.85"/>
<polygon fill="black" stroke="black" points="2200.48,-303.85 2203.98,-313.85 2207.48,-303.85 2200.48,-303.85"/>
</g>
<!-- ProductionHouseModule&#45;&gt;AppModule -->
<g id="edge8" class="edge">
<title>ProductionHouseModule&#45;&gt;AppModule</title>
<path fill="none" stroke="black" d="M2156.79,-274.27C2156.79,-314.06 2156.79,-405 2156.79,-405 2156.79,-405 1288.91,-405 1288.91,-405"/>
<polygon fill="black" stroke="black" points="1288.91,-401.5 1278.91,-405 1288.91,-408.5 1288.91,-401.5"/>
</g>
<!-- ProfileModule&#45;&gt;AppModule -->
<g id="edge9" class="edge">
<title>ProfileModule&#45;&gt;AppModule</title>
<path fill="none" stroke="black" d="M1958,-274.14C1958,-312.23 1958,-397 1958,-397 1958,-397 1288.88,-397 1288.88,-397"/>
<polygon fill="black" stroke="black" points="1288.88,-393.5 1278.88,-397 1288.88,-400.5 1288.88,-393.5"/>
</g>
<!-- RateingModule&#45;&gt;AppModule -->
<g id="edge10" class="edge">
<title>RateingModule&#45;&gt;AppModule</title>
<path fill="none" stroke="black" d="M2261.1,-412C2261.1,-412 1288.79,-412 1288.79,-412"/>
<polygon fill="black" stroke="black" points="1288.79,-408.5 1278.79,-412 1288.79,-415.5 1288.79,-408.5"/>
</g>
<!-- ReviewModule&#45;&gt;AppModule -->
<g id="edge11" class="edge">
<title>ReviewModule&#45;&gt;AppModule</title>
<path fill="none" stroke="black" d="M2332.75,-274.04C2332.75,-287.29 2332.75,-303 2332.75,-303 2332.75,-303 1250.94,-303 1250.94,-303 1250.94,-303 1250.94,-368.88 1250.94,-368.88"/>
<polygon fill="black" stroke="black" points="1247.44,-368.88 1250.94,-378.88 1254.44,-368.88 1247.44,-368.88"/>
</g>
<!-- UsersModule -->
<g id="node12" class="node">
<title>UsersModule</title>
<polygon fill="#8dd3c7" stroke="black" points="1957.92,-122 1954.92,-126 1933.92,-126 1930.92,-122 1866.08,-122 1866.08,-86 1957.92,-86 1957.92,-122"/>
<text text-anchor="middle" x="1912" y="-99.8" font-family="Times,serif" font-size="14.00">UsersModule</text>
</g>
<!-- UsersModule&#45;&gt;AuthModule -->
<g id="edge14" class="edge">
<title>UsersModule&#45;&gt;AuthModule</title>
<path fill="none" stroke="black" d="M1945.58,-122.13C1945.58,-142.57 1945.58,-173 1945.58,-173 1945.58,-173 2263.3,-173 2263.3,-173"/>
<polygon fill="black" stroke="black" points="2263.3,-176.5 2273.3,-173 2263.3,-169.5 2263.3,-176.5"/>
</g>
<!-- UsersModule&#45;&gt;GenresModule -->
<g id="edge24" class="edge">
<title>UsersModule&#45;&gt;GenresModule</title>
<path fill="none" stroke="black" d="M1957.88,-115C1996.08,-115 2044.24,-115 2044.24,-115 2044.24,-115 2044.24,-227.86 2044.24,-227.86"/>
<polygon fill="black" stroke="black" points="2040.74,-227.86 2044.24,-237.86 2047.74,-227.86 2040.74,-227.86"/>
</g>
<!-- UsersModule&#45;&gt;MovieModule -->
<g id="edge37" class="edge">
<title>UsersModule&#45;&gt;MovieModule</title>
<path fill="none" stroke="black" d="M1903.05,-122.17C1903.05,-175.19 1903.05,-326 1903.05,-326 1903.05,-326 2161.86,-326 2161.86,-326"/>
<polygon fill="black" stroke="black" points="2161.86,-329.5 2171.86,-326 2161.86,-322.5 2161.86,-329.5"/>
</g>
<!-- UsersModule&#45;&gt;PersonsModule -->
<g id="edge43" class="edge">
<title>UsersModule&#45;&gt;PersonsModule</title>
<path fill="none" stroke="black" d="M1884.67,-122.03C1884.67,-162.3 1884.67,-256 1884.67,-256 1884.67,-256 1860.81,-256 1860.81,-256"/>
<polygon fill="black" stroke="black" points="1860.81,-252.5 1850.81,-256 1860.81,-259.5 1860.81,-252.5"/>
</g>
<!-- UsersModule&#45;&gt;ProductionHouseModule -->
<g id="edge48" class="edge">
<title>UsersModule&#45;&gt;ProductionHouseModule</title>
<path fill="none" stroke="black" d="M1957.84,-101C2040.82,-101 2207.42,-101 2207.42,-101 2207.42,-101 2207.42,-227.92 2207.42,-227.92"/>
<polygon fill="black" stroke="black" points="2203.92,-227.92 2207.42,-237.92 2210.92,-227.92 2203.92,-227.92"/>
</g>
<!-- UsersModule&#45;&gt;ProfileModule -->
<g id="edge52" class="edge">
<title>UsersModule&#45;&gt;ProfileModule</title>
<path fill="none" stroke="black" d="M1933.44,-122.03C1933.44,-122.03 1933.44,-227.99 1933.44,-227.99"/>
<polygon fill="black" stroke="black" points="1929.94,-227.99 1933.44,-237.99 1936.94,-227.99 1929.94,-227.99"/>
</g>
<!-- UsersModule&#45;&gt;RateingModule -->
<g id="edge56" class="edge">
<title>UsersModule&#45;&gt;RateingModule</title>
<path fill="none" stroke="black" d="M1896.92,-122.31C1896.92,-184.38 1896.92,-383 1896.92,-383 1896.92,-383 2251.14,-383 2251.14,-383"/>
<polygon fill="black" stroke="black" points="2251.14,-386.5 2261.14,-383 2251.14,-379.5 2251.14,-386.5"/>
</g>
<!-- UsersModule&#45;&gt;ReviewModule -->
<g id="edge60" class="edge">
<title>UsersModule&#45;&gt;ReviewModule</title>
<path fill="none" stroke="black" d="M1957.75,-94C2075.57,-94 2380.23,-94 2380.23,-94 2380.23,-94 2380.23,-227.73 2380.23,-227.73"/>
<polygon fill="black" stroke="black" points="2376.73,-227.73 2380.23,-237.73 2383.73,-227.73 2376.73,-227.73"/>
</g>
<!-- UsersModule&#45;&gt;AppModule -->
<g id="edge12" class="edge">
<title>UsersModule&#45;&gt;AppModule</title>
<path fill="none" stroke="black" d="M1890.8,-122.14C1890.8,-185.63 1890.8,-394 1890.8,-394 1890.8,-394 1288.89,-394 1288.89,-394"/>
<polygon fill="black" stroke="black" points="1288.89,-390.5 1278.89,-394 1288.89,-397.5 1288.89,-390.5"/>
</g>
<!-- UsersService  -->
<g id="node37" class="node">
<title>UsersService </title>
<polygon fill="#fb8072" stroke="black" points="1083.85,-198 990.15,-198 990.15,-162 1083.85,-162 1083.85,-198"/>
<text text-anchor="middle" x="1037" y="-175.8" font-family="Times,serif" font-size="14.00">UsersService </text>
</g>
<!-- UsersModule&#45;&gt;UsersService  -->
<g id="edge62" class="edge">
<title>UsersModule&#45;&gt;UsersService </title>
<path fill="none" stroke="black" stroke-dasharray="5,2" d="M1878.54,-122.17C1878.54,-141.09 1878.54,-168 1878.54,-168 1878.54,-168 1093.75,-168 1093.75,-168"/>
<polygon fill="black" stroke="black" points="1093.75,-164.5 1083.75,-168 1093.75,-171.5 1093.75,-164.5"/>
</g>
<!-- AppService -->
<g id="node14" class="node">
<title>AppService</title>
<ellipse fill="#fdb462" stroke="black" cx="1353" cy="-332" rx="56.74" ry="18"/>
<text text-anchor="middle" x="1353" y="-327.8" font-family="Times,serif" font-size="14.00">AppService</text>
</g>
<!-- AppService&#45;&gt;AppModule -->
<g id="edge13" class="edge">
<title>AppService&#45;&gt;AppModule</title>
<path fill="none" stroke="black" d="M1296.2,-332C1279.15,-332 1264.89,-332 1264.89,-332 1264.89,-332 1264.89,-368.89 1264.89,-368.89"/>
<polygon fill="black" stroke="black" points="1261.39,-368.89 1264.89,-378.89 1268.39,-368.89 1261.39,-368.89"/>
</g>
<!-- AuthService -->
<g id="node17" class="node">
<title>AuthService</title>
<ellipse fill="#fdb462" stroke="black" cx="3129" cy="-104" rx="59.11" ry="18"/>
<text text-anchor="middle" x="3129" y="-99.8" font-family="Times,serif" font-size="14.00">AuthService</text>
</g>
<!-- AuthService&#45;&gt;AuthModule -->
<g id="edge17" class="edge">
<title>AuthService&#45;&gt;AuthModule</title>
<path fill="none" stroke="black" d="M3084.1,-115.92C3084.1,-128.34 3084.1,-146 3084.1,-146 3084.1,-146 2321.86,-146 2321.86,-146 2321.86,-146 2321.86,-151.81 2321.86,-151.81"/>
<polygon fill="black" stroke="black" points="2318.36,-151.81 2321.86,-161.81 2325.36,-151.81 2318.36,-151.81"/>
</g>
<!-- FacebookStrategy -->
<g id="node18" class="node">
<title>FacebookStrategy</title>
<ellipse fill="#fdb462" stroke="black" cx="2971" cy="-104" rx="80.52" ry="18"/>
<text text-anchor="middle" x="2971" y="-99.8" font-family="Times,serif" font-size="14.00">FacebookStrategy</text>
</g>
<!-- FacebookStrategy&#45;&gt;AuthModule -->
<g id="edge18" class="edge">
<title>FacebookStrategy&#45;&gt;AuthModule</title>
<path fill="none" stroke="black" d="M2908.48,-115.61C2908.48,-126.78 2908.48,-142 2908.48,-142 2908.48,-142 2312.14,-142 2312.14,-142 2312.14,-142 2312.14,-151.89 2312.14,-151.89"/>
<polygon fill="black" stroke="black" points="2308.64,-151.89 2312.14,-161.89 2315.64,-151.89 2308.64,-151.89"/>
</g>
<!-- GoogleStrategy -->
<g id="node19" class="node">
<title>GoogleStrategy</title>
<ellipse fill="#fdb462" stroke="black" cx="2801" cy="-104" rx="71.79" ry="18"/>
<text text-anchor="middle" x="2801" y="-99.8" font-family="Times,serif" font-size="14.00">GoogleStrategy</text>
</g>
<!-- GoogleStrategy&#45;&gt;AuthModule -->
<g id="edge19" class="edge">
<title>GoogleStrategy&#45;&gt;AuthModule</title>
<path fill="none" stroke="black" d="M2801,-122.19C2801,-130.28 2801,-138 2801,-138 2801,-138 2302.41,-138 2302.41,-138 2302.41,-138 2302.41,-151.94 2302.41,-151.94"/>
<polygon fill="black" stroke="black" points="2298.91,-151.94 2302.41,-161.94 2305.91,-151.94 2298.91,-151.94"/>
</g>
<!-- JwtAuthGuard -->
<g id="node20" class="node">
<title>JwtAuthGuard</title>
<ellipse fill="#fdb462" stroke="black" cx="3554" cy="-104" rx="67.78" ry="18"/>
<text text-anchor="middle" x="3554" y="-99.8" font-family="Times,serif" font-size="14.00">JwtAuthGuard</text>
</g>
<!-- JwtAuthGuard&#45;&gt;AuthModule -->
<g id="edge20" class="edge">
<title>JwtAuthGuard&#45;&gt;AuthModule</title>
<path fill="none" stroke="black" d="M3505.51,-116.8C3505.51,-132.77 3505.51,-158 3505.51,-158 3505.51,-158 2351.05,-158 2351.05,-158 2351.05,-158 2351.05,-158.38 2351.05,-158.38"/>
<polygon fill="black" stroke="black" points="2347.55,-151.83 2351.05,-161.83 2354.55,-151.83 2347.55,-151.83"/>
</g>
<!-- JwtAuthGuard&#45;&gt;GenresModule -->
<g id="edge26" class="edge">
<title>JwtAuthGuard&#45;&gt;GenresModule</title>
<path fill="none" stroke="black" d="M3544.3,-122.06C3544.3,-154.21 3544.3,-218 3544.3,-218 3544.3,-218 2103.76,-218 2103.76,-218 2103.76,-218 2103.76,-227.89 2103.76,-227.89"/>
<polygon fill="black" stroke="black" points="2100.26,-227.89 2103.76,-237.89 2107.26,-227.89 2100.26,-227.89"/>
</g>
<!-- JwtAuthGuard&#45;&gt;MovieModule -->
<g id="edge39" class="edge">
<title>JwtAuthGuard&#45;&gt;MovieModule</title>
<path fill="none" stroke="black" d="M3583.1,-120.43C3583.1,-169.08 3583.1,-309 3583.1,-309 3583.1,-309 2236.02,-309 2236.02,-309 2236.02,-309 2236.02,-309.49 2236.02,-309.49"/>
<polygon fill="black" stroke="black" points="2232.52,-303.88 2236.02,-313.88 2239.52,-303.88 2232.52,-303.88"/>
</g>
<!-- JwtAuthGuard&#45;&gt;PersonsModule -->
<g id="edge45" class="edge">
<title>JwtAuthGuard&#45;&gt;PersonsModule</title>
<path fill="none" stroke="black" d="M3524.9,-120.35C3524.9,-148.47 3524.9,-203 3524.9,-203 3524.9,-203 1816.18,-203 1816.18,-203 1816.18,-203 1816.18,-227.76 1816.18,-227.76"/>
<polygon fill="black" stroke="black" points="1812.68,-227.76 1816.18,-237.76 1819.68,-227.76 1812.68,-227.76"/>
</g>
<!-- JwtAuthGuard&#45;&gt;ProductionHouseModule -->
<g id="edge49" class="edge">
<title>JwtAuthGuard&#45;&gt;ProductionHouseModule</title>
<path fill="none" stroke="black" d="M3563.7,-122.03C3563.7,-156.42 3563.7,-228 3563.7,-228 3563.7,-228 2292.09,-228 2292.09,-228 2292.09,-228 2292.09,-228.98 2292.09,-228.98"/>
<polygon fill="black" stroke="black" points="2288.59,-227.79 2292.09,-237.79 2295.59,-227.79 2288.59,-227.79"/>
</g>
<!-- JwtAuthGuard&#45;&gt;RateingModule -->
<g id="edge57" class="edge">
<title>JwtAuthGuard&#45;&gt;RateingModule</title>
<path fill="none" stroke="black" d="M3602.49,-116.97C3602.49,-173.67 3602.49,-397 3602.49,-397 3602.49,-397 2374.75,-397 2374.75,-397"/>
<polygon fill="black" stroke="black" points="2374.75,-393.5 2364.75,-397 2374.75,-400.5 2374.75,-393.5"/>
</g>
<!-- JwtStrategy -->
<g id="node21" class="node">
<title>JwtStrategy</title>
<ellipse fill="#fdb462" stroke="black" cx="3263" cy="-104" rx="56.76" ry="18"/>
<text text-anchor="middle" x="3263" y="-99.8" font-family="Times,serif" font-size="14.00">JwtStrategy</text>
</g>
<!-- JwtStrategy&#45;&gt;AuthModule -->
<g id="edge21" class="edge">
<title>JwtStrategy&#45;&gt;AuthModule</title>
<path fill="none" stroke="black" d="M3227.12,-118.05C3227.12,-131.58 3227.12,-150 3227.12,-150 3227.12,-150 2331.59,-150 2331.59,-150 2331.59,-150 2331.59,-151.86 2331.59,-151.86"/>
<polygon fill="black" stroke="black" points="2328.09,-151.86 2331.59,-161.86 2335.09,-151.86 2328.09,-151.86"/>
</g>
<!-- JwtStrategy&#45;&gt;UsersModule -->
<g id="edge63" class="edge">
<title>JwtStrategy&#45;&gt;UsersModule</title>
<path fill="none" stroke="black" d="M3216.74,-114.48C3216.74,-120.15 3216.74,-126 3216.74,-126 3216.74,-126 1921.31,-126 1921.31,-126 1921.31,-126 1921.31,-125.62 1921.31,-125.62"/>
<polygon fill="black" stroke="black" points="1924.81,-132.17 1921.31,-122.17 1917.81,-132.17 1924.81,-132.17"/>
</g>
<!-- LocalStrategy -->
<g id="node22" class="node">
<title>LocalStrategy</title>
<ellipse fill="#fdb462" stroke="black" cx="3403" cy="-104" rx="65.41" ry="18"/>
<text text-anchor="middle" x="3403" y="-99.8" font-family="Times,serif" font-size="14.00">LocalStrategy</text>
</g>
<!-- LocalStrategy&#45;&gt;AuthModule -->
<g id="edge22" class="edge">
<title>LocalStrategy&#45;&gt;AuthModule</title>
<path fill="none" stroke="black" d="M3405.73,-122.05C3405.73,-136.37 3405.73,-154 3405.73,-154 3405.73,-154 2341.32,-154 2341.32,-154 2341.32,-154 2341.32,-154.79 2341.32,-154.79"/>
<polygon fill="black" stroke="black" points="2337.82,-151.94 2341.32,-161.94 2344.82,-151.94 2337.82,-151.94"/>
</g>
<!-- GenresService -->
<g id="node23" class="node">
<title>GenresService</title>
<ellipse fill="#fdb462" stroke="black" cx="2566" cy="-180" rx="67.17" ry="18"/>
<text text-anchor="middle" x="2566" y="-175.8" font-family="Times,serif" font-size="14.00">GenresService</text>
</g>
<!-- GenresService&#45;&gt;GenresModule -->
<g id="edge25" class="edge">
<title>GenresService&#45;&gt;GenresModule</title>
<path fill="none" stroke="black" d="M2566,-198.04C2566,-205.75 2566,-213 2566,-213 2566,-213 2083.92,-213 2083.92,-213 2083.92,-213 2083.92,-227.51 2083.92,-227.51"/>
<polygon fill="black" stroke="black" points="2080.42,-227.51 2083.92,-237.51 2087.42,-227.51 2080.42,-227.51"/>
</g>
<!-- MovieDirectorService -->
<g id="node25" class="node">
<title>MovieDirectorService</title>
<ellipse fill="#fdb462" stroke="black" cx="121" cy="-332" rx="97.25" ry="18"/>
<text text-anchor="middle" x="121" y="-327.8" font-family="Times,serif" font-size="14.00">MovieDirectorService</text>
</g>
<!-- MovieDirectorService&#45;&gt;MovieDirectorModule -->
<g id="edge28" class="edge">
<title>MovieDirectorService&#45;&gt;MovieDirectorModule</title>
<path fill="none" stroke="black" d="M121,-313.97C121,-289.02 121,-247 121,-247 121,-247 1423.5,-247 1423.5,-247"/>
<polygon fill="black" stroke="black" points="1423.5,-250.5 1433.5,-247 1423.5,-243.5 1423.5,-250.5"/>
</g>
<!-- MovieGenresService -->
<g id="node27" class="node">
<title>MovieGenresService</title>
<ellipse fill="#fdb462" stroke="black" cx="519" cy="-332" rx="92.59" ry="18"/>
<text text-anchor="middle" x="519" y="-327.8" font-family="Times,serif" font-size="14.00">MovieGenresService</text>
</g>
<!-- MovieGenresService&#45;&gt;MovieGenresModule -->
<g id="edge30" class="edge">
<title>MovieGenresService&#45;&gt;MovieGenresModule</title>
<path fill="none" stroke="black" d="M519,-313.81C519,-298.82 519,-280 519,-280 519,-280 1621.28,-280 1621.28,-280 1621.28,-280 1621.28,-279.42 1621.28,-279.42"/>
<polygon fill="black" stroke="black" points="1624.78,-284.19 1621.28,-274.19 1617.78,-284.19 1624.78,-284.19"/>
</g>
<!-- MovieActorService -->
<g id="node29" class="node">
<title>MovieActorService</title>
<ellipse fill="#fdb462" stroke="black" cx="2763" cy="-256" rx="87.38" ry="18"/>
<text text-anchor="middle" x="2763" y="-251.8" font-family="Times,serif" font-size="14.00">MovieActorService</text>
</g>
<!-- MovieActorService&#45;&gt;MovieModule -->
<g id="edge40" class="edge">
<title>MovieActorService&#45;&gt;MovieModule</title>
<path fill="none" stroke="black" d="M2763,-274.13C2763,-294.57 2763,-325 2763,-325 2763,-325 2278.19,-325 2278.19,-325"/>
<polygon fill="black" stroke="black" points="2278.19,-321.5 2268.19,-325 2278.19,-328.5 2278.19,-321.5"/>
</g>
<!-- MovieService -->
<g id="node30" class="node">
<title>MovieService</title>
<ellipse fill="#fdb462" stroke="black" cx="2933" cy="-256" rx="65.41" ry="18"/>
<text text-anchor="middle" x="2933" y="-251.8" font-family="Times,serif" font-size="14.00">MovieService</text>
</g>
<!-- MovieService&#45;&gt;MovieModule -->
<g id="edge41" class="edge">
<title>MovieService&#45;&gt;MovieModule</title>
<path fill="none" stroke="black" d="M2933,-274.29C2933,-296.21 2933,-330 2933,-330 2933,-330 2278.17,-330 2278.17,-330"/>
<polygon fill="black" stroke="black" points="2278.17,-326.5 2268.17,-330 2278.17,-333.5 2278.17,-326.5"/>
</g>
<!-- PersonsService -->
<g id="node32" class="node">
<title>PersonsService</title>
<ellipse fill="#fdb462" stroke="black" cx="884" cy="-332" rx="70.06" ry="18"/>
<text text-anchor="middle" x="884" y="-327.8" font-family="Times,serif" font-size="14.00">PersonsService</text>
</g>
<!-- PersonsService&#45;&gt;PersonsModule -->
<g id="edge46" class="edge">
<title>PersonsService&#45;&gt;PersonsModule</title>
<path fill="none" stroke="black" d="M898.03,-314.34C898.03,-303.62 898.03,-292 898.03,-292 898.03,-292 1768.07,-292 1768.07,-292 1768.07,-292 1768.07,-284.42 1768.07,-284.42"/>
<polygon fill="black" stroke="black" points="1771.57,-284.42 1768.07,-274.42 1764.57,-284.42 1771.57,-284.42"/>
</g>
<!-- ProductionHouseService -->
<g id="node33" class="node">
<title>ProductionHouseService</title>
<ellipse fill="#fdb462" stroke="black" cx="2780" cy="-180" rx="107.08" ry="18"/>
<text text-anchor="middle" x="2780" y="-175.8" font-family="Times,serif" font-size="14.00">ProductionHouseService</text>
</g>
<!-- ProductionHouseService&#45;&gt;ProductionHouseModule -->
<g id="edge50" class="edge">
<title>ProductionHouseService&#45;&gt;ProductionHouseModule</title>
<path fill="none" stroke="black" d="M2763,-197.99C2763,-209.77 2763,-223 2763,-223 2763,-223 2285.8,-223 2285.8,-223 2285.8,-223 2285.8,-227.96 2285.8,-227.96"/>
<polygon fill="black" stroke="black" points="2282.3,-227.96 2285.8,-237.96 2289.3,-227.96 2282.3,-227.96"/>
</g>
<!-- ProfileService -->
<g id="node34" class="node">
<title>ProfileService</title>
<ellipse fill="#fdb462" stroke="black" cx="2993" cy="-180" rx="66.05" ry="18"/>
<text text-anchor="middle" x="2993" y="-175.8" font-family="Times,serif" font-size="14.00">ProfileService</text>
</g>
<!-- ProfileService&#45;&gt;ProfileModule -->
<g id="edge53" class="edge">
<title>ProfileService&#45;&gt;ProfileModule</title>
<path fill="none" stroke="black" d="M2962.47,-196.29C2962.47,-202.45 2962.47,-208 2962.47,-208 2962.47,-208 1990.45,-208 1990.45,-208 1990.45,-208 1990.45,-227.85 1990.45,-227.85"/>
<polygon fill="black" stroke="black" points="1986.95,-227.85 1990.45,-237.85 1993.95,-227.85 1986.95,-227.85"/>
</g>
<!-- RatingService -->
<g id="node35" class="node">
<title>RatingService</title>
<ellipse fill="#fdb462" stroke="black" cx="3409" cy="-332" rx="65.99" ry="18"/>
<text text-anchor="middle" x="3409" y="-327.8" font-family="Times,serif" font-size="14.00">RatingService</text>
</g>
<!-- RatingService&#45;&gt;RateingModule -->
<g id="edge58" class="edge">
<title>RatingService&#45;&gt;RateingModule</title>
<path fill="none" stroke="black" d="M3350.1,-340C3127.3,-340 2348.65,-340 2348.65,-340 2348.65,-340 2348.65,-368.96 2348.65,-368.96"/>
<polygon fill="black" stroke="black" points="2345.15,-368.96 2348.65,-378.96 2352.15,-368.96 2345.15,-368.96"/>
</g>
<!-- ReviewService -->
<g id="node36" class="node">
<title>ReviewService</title>
<ellipse fill="#fdb462" stroke="black" cx="3168" cy="-180" rx="69.48" ry="18"/>
<text text-anchor="middle" x="3168" y="-175.8" font-family="Times,serif" font-size="14.00">ReviewService</text>
</g>
<!-- ReviewService&#45;&gt;ReviewModule -->
<g id="edge61" class="edge">
<title>ReviewService&#45;&gt;ReviewModule</title>
<path fill="none" stroke="black" d="M3109.26,-189.72C3109.26,-205.02 3109.26,-233 3109.26,-233 3109.26,-233 2399.7,-233 2399.7,-233 2399.7,-233 2399.7,-233.49 2399.7,-233.49"/>
<polygon fill="black" stroke="black" points="2396.2,-227.88 2399.7,-237.88 2403.2,-227.88 2396.2,-227.88"/>
</g>
<!-- UsersService -->
<g id="node38" class="node">
<title>UsersService</title>
<ellipse fill="#fdb462" stroke="black" cx="904" cy="-180" rx="61.95" ry="18"/>
<text text-anchor="middle" x="904" y="-175.8" font-family="Times,serif" font-size="14.00">UsersService</text>
</g>
<!-- UsersService&#45;&gt;UsersModule -->
<g id="edge64" class="edge">
<title>UsersService&#45;&gt;UsersModule</title>
<path fill="none" stroke="black" d="M904,-161.95C904,-147.63 904,-130 904,-130 904,-130 1872.42,-130 1872.42,-130 1872.42,-130 1872.42,-129.21 1872.42,-129.21"/>
<polygon fill="black" stroke="black" points="1875.92,-132.06 1872.42,-122.06 1868.92,-132.06 1875.92,-132.06"/>
</g>
</g>
</svg>
